<svg width="108" height="108" viewBox="0 0 108 108" fill="none" xmlns="http://www.w3.org/2000/svg">
<g clip-path="url(#clip0_638_13479)">
<path d="M107.856 57.0337C107.463 56.2451 106.626 55.8529 105.528 55.9246C104.899 55.9769 104.283 56.1292 103.702 56.3758C103.357 56.5198 103.021 56.6846 102.696 56.8693C102.319 57.0695 101.954 57.2905 101.602 57.5314C100.928 58.0032 100.342 58.5883 99.8688 59.2605C99.32 60.0185 98.8512 60.8312 98.4699 61.6854C98.677 60.9896 98.8503 60.3148 99.0278 59.6696C99.1165 59.349 99.2095 59.037 99.2814 58.7249C99.3532 58.4128 99.425 58.1092 99.4969 57.8139C99.7556 57.4859 100.065 57.2011 100.414 56.9705C100.769 56.7259 101.17 56.5024 101.572 56.2788C102.432 55.8509 103.25 55.3426 104.015 54.7606C106.031 53.0737 106.44 51.4205 105.705 50.3029C104.97 49.1853 103.431 49.9191 102.244 51.2096C101.801 51.6888 101.421 52.2215 101.111 52.7953C100.925 53.1243 100.756 53.487 100.57 53.8792C100.384 54.2714 100.207 54.6847 100.038 55.1444C100.169 54.4696 100.3 53.8792 100.384 53.3267L100.6 51.9519C100.722 51.6988 100.849 51.4289 100.989 51.1464C101.128 50.8638 101.255 50.5602 101.411 50.2523C101.69 49.6281 101.982 48.9618 102.257 48.2828C102.77 47.0406 103.102 45.731 103.241 44.3944C103.283 43.7725 103.262 43.148 103.178 42.5304C103.108 42.0532 102.973 41.5878 102.776 41.1471C102.421 40.4217 101.897 40 101.259 40C100.621 40 100.08 40.4217 99.6955 41.1176C99.4855 41.5288 99.3347 41.9675 99.2475 42.4207C99.1199 42.9923 99.0407 43.5735 99.0109 44.1583C99.0066 45.4399 99.1326 46.7187 99.387 47.9749C99.4927 48.6666 99.611 49.3624 99.7251 50.0246C99.78 50.3535 99.8477 50.6782 99.8857 50.9819C99.9237 51.2855 99.9618 51.5807 99.9998 51.8507C99.9364 52.226 99.8603 52.6941 99.7674 53.2128C99.6744 53.7316 99.5434 54.3431 99.4081 55.0136C99.4081 54.5371 99.4081 54.0901 99.4081 53.6683C99.3825 53.2731 99.3303 52.88 99.2518 52.4917C99.1426 51.8704 98.9478 51.2672 98.6728 50.6993C97.8276 49.1727 96.4836 48.228 95.5454 49.0124C94.6072 49.7968 94.5607 51.1675 95.892 53.2297C96.4223 53.998 97.001 54.7319 97.6247 55.4269C97.9081 55.7649 98.1626 56.1261 98.3854 56.5066C98.5907 56.8606 98.7336 57.2472 98.808 57.6495L98.584 58.5562C98.508 58.8641 98.4108 59.1719 98.322 59.4924C98.1361 60.125 97.9586 60.7956 97.7473 61.4788C97.8824 60.5669 97.9009 59.6415 97.8022 58.7249C97.7075 57.9324 97.4484 57.1683 97.0415 56.4813C96.8363 56.1316 96.6075 55.7963 96.3568 55.4775C96.1241 55.1929 95.8713 54.9251 95.6004 54.6763C95.1502 54.253 94.6352 53.9041 94.0747 53.643C93.0773 53.2002 92.156 53.2213 91.539 53.643C91.385 53.7494 91.2624 53.895 91.184 54.0647C91.106 54.2405 91.0615 54.4293 91.053 54.6214C91.0487 55.1167 91.151 55.6071 91.3531 56.0595C91.4684 56.3484 91.6011 56.63 91.7503 56.903C91.9025 57.1856 92.0715 57.4766 92.2574 57.7676C92.6524 58.3798 93.0977 58.9581 93.5887 59.4967C93.8169 59.7539 94.0451 60.0027 94.2522 60.2389C94.4593 60.4751 94.6748 60.7112 94.8354 60.939C95.1867 61.3716 95.4966 61.8361 95.7609 62.3265C95.8852 62.5647 95.9925 62.8113 96.0821 63.0645C96.1286 63.1952 96.1709 63.326 96.2047 63.4609C96.2385 63.5959 96.2639 63.7308 96.285 63.8827C96.3739 64.5178 96.3739 65.1622 96.285 65.7973C96.1455 66.1895 95.9807 66.5733 95.8159 66.9613C95.6511 67.3493 95.4905 67.7499 95.3214 68.1506C95.4285 67.6867 95.5088 67.2396 95.5623 66.8095C95.6189 66.3903 95.6373 65.9668 95.6173 65.5443C95.5875 64.7789 95.408 64.0268 95.089 63.3302C94.528 62.0501 93.5983 60.9653 92.418 60.2136C91.4714 59.6738 90.5543 59.5979 89.8823 59.9521C89.7176 60.0408 89.5781 60.1697 89.4769 60.3268C89.3756 60.4839 89.3159 60.664 89.3034 60.8504C89.2778 61.0718 89.2778 61.2954 89.3034 61.5167C89.3302 61.7809 89.3811 62.042 89.4555 62.2969C89.6423 62.9133 89.8871 63.5106 90.1866 64.0809C90.5044 64.7241 90.8718 65.3416 91.2854 65.9281C91.6827 66.4721 92.0504 66.9782 92.3631 67.4674C92.6591 67.9247 92.911 68.4091 93.1154 68.9139C93.3148 69.41 93.4388 69.9332 93.483 70.4659C93.5121 71.0835 93.448 71.7019 93.2929 72.3004C93.1027 72.6631 92.9252 73.0385 92.7139 73.3927C92.5026 73.747 92.2913 74.1139 92.0926 74.4766C92.2405 74.0548 92.3631 73.6331 92.4603 73.2409C92.549 72.8513 92.6041 72.4548 92.6251 72.0558C92.6832 71.3306 92.597 70.6011 92.3716 69.9092C91.9547 68.5822 91.1532 67.4082 90.0683 66.5353C89.1892 65.8943 88.2848 65.7172 87.5664 65.9829C87.3942 66.0496 87.2418 66.1589 87.1235 66.3006C87.0052 66.4422 86.9249 66.6115 86.8902 66.7926C86.838 67.0093 86.8152 67.232 86.8226 67.4547C86.82 67.7162 86.8412 67.9773 86.886 68.2349C86.9965 68.8643 87.1722 69.4805 87.41 70.0737C87.6676 70.7446 87.9741 71.3958 88.3271 72.0221C88.9356 72.9976 89.421 74.0444 89.7725 75.1387C90.0728 76.2259 90.0075 77.3815 89.5865 78.4282L88.8892 79.4193C88.6483 79.7482 88.3905 80.0645 88.1454 80.385C88.3306 80.0215 88.4929 79.6469 88.6314 79.2632C88.7514 78.9005 88.846 78.5299 88.9145 78.1541C89.0576 77.4712 89.0576 76.7662 88.9145 76.0834C88.6731 74.7139 88.0219 73.4495 87.0466 72.4565C86.6945 72.1192 86.2776 71.8566 85.821 71.6847C85.4431 71.5492 85.0352 71.52 84.6419 71.6003C84.4642 71.6412 84.3 71.7271 84.1653 71.8497C84.0306 71.9724 83.9298 72.1276 83.8727 72.3004C83.7261 72.7562 83.6687 73.2358 83.7037 73.7132C83.7339 74.3429 83.8302 74.9677 83.991 75.5773C84.0291 75.746 84.0756 75.9189 84.1263 76.0876C84.177 76.2563 84.2193 76.4292 84.2742 76.5979C84.3799 76.9395 84.4982 77.2853 84.6334 77.6227C84.8701 78.2257 85.0898 78.7782 85.2673 79.3096C85.3519 79.5753 85.4322 79.8368 85.4998 80.0898C85.5674 80.3428 85.6054 80.5917 85.6393 80.8405C85.7434 81.6194 85.6726 82.4117 85.4322 83.16C85.3293 83.4493 85.2065 83.7311 85.0645 84.0035C84.5109 84.577 83.9741 85.1674 83.374 85.6904C83.8102 85.0759 84.1507 84.3991 84.3841 83.683C84.4912 83.3611 84.5718 83.0311 84.625 82.6961C84.6721 82.3722 84.6834 82.0441 84.6588 81.7177C84.6131 80.3296 84.1394 78.9894 83.3022 77.8799C82.6049 77.0365 81.7934 76.64 81.0496 76.6949C80.8715 76.7069 80.6996 76.7654 80.5512 76.8646C80.4029 76.9637 80.2833 77.1001 80.2044 77.26C80.099 77.4472 80.022 77.649 79.9762 77.8588C79.9464 77.9783 79.9238 78.0994 79.9086 78.2215C79.8832 78.3512 79.8648 78.4821 79.8536 78.6137C79.7779 79.9475 79.9018 81.285 80.2213 82.5822C80.365 83.198 80.4918 83.7673 80.589 84.3113C80.6355 84.5812 80.6735 84.8469 80.6989 85.1084C80.7219 85.3565 80.7304 85.6058 80.7242 85.8549C80.7187 86.3524 80.6418 86.8467 80.496 87.3225C80.4165 87.5765 80.3191 87.8245 80.2044 88.0647C80.0685 88.3235 79.9131 88.5717 79.7395 88.807C79.1056 89.2709 78.497 89.7643 77.842 90.1734C78.3432 89.6558 78.7635 89.0658 79.0887 88.4232C79.2359 88.1339 79.3603 87.8336 79.4606 87.5249C79.5558 87.2251 79.6153 86.9151 79.6381 86.6013C79.8119 85.2275 79.5504 83.8339 78.89 82.616C78.3322 81.6713 77.5926 81.1568 76.8573 81.0851C76.6825 81.0681 76.5063 81.0983 76.3472 81.1725C76.1881 81.2467 76.0519 81.3621 75.9529 81.5068C75.8248 81.6742 75.7209 81.8588 75.6443 82.0551C75.5978 82.1668 75.5568 82.2808 75.5218 82.3967C75.4795 82.5148 75.4457 82.6371 75.4077 82.7678C75.2627 83.3682 75.1764 83.9811 75.1499 84.5981C75.1499 84.7668 75.1499 84.9439 75.1287 85.1211C75.1076 85.2982 75.1287 85.4669 75.1287 85.644C75.1287 85.994 75.1287 86.3567 75.1583 86.7194C75.1964 87.3352 75.2302 87.9087 75.2302 88.4527C75.2302 88.7226 75.2302 88.9883 75.209 89.2414C75.1897 89.4861 75.1572 89.7297 75.1118 89.971C75.0261 90.4494 74.8739 90.9136 74.6596 91.35C74.5438 91.5843 74.411 91.8098 74.2624 92.0248C74.0922 92.249 73.9057 92.4604 73.7045 92.6574L72.6522 93.1382C72.4832 93.2225 72.3141 93.3153 72.1408 93.3912L71.621 93.6147C71.7689 93.5051 71.9084 93.3912 72.0436 93.2816C72.1789 93.1719 72.3014 93.0412 72.424 92.9189C72.6561 92.6804 72.8721 92.4268 73.0706 92.1598C73.4518 91.6767 73.7307 91.1215 73.8905 90.5277C74.0938 89.7918 74.1891 89.0304 74.1736 88.2672C74.167 87.6577 74.0541 87.054 73.8398 86.4833C73.6796 86.0297 73.4327 85.6115 73.1129 85.2518C72.8459 84.9603 72.5061 84.7449 72.1282 84.6276C71.9641 84.577 71.7894 84.5718 71.6226 84.6127C71.4559 84.6535 71.3034 84.7389 71.1815 84.8596C70.8656 85.1863 70.6147 85.5698 70.4419 85.9898C70.1987 86.5528 70.0091 87.1374 69.8756 87.7358C69.8376 87.9045 69.7995 88.0732 69.7657 88.2461C69.7319 88.419 69.6897 88.5835 69.6601 88.7522C69.5925 89.098 69.5375 89.4565 69.4953 89.8149C69.4234 90.418 69.3516 90.9789 69.2544 91.5019C69.2079 91.7633 69.1572 92.0206 69.0938 92.261C69.0304 92.5014 68.9585 92.7291 68.874 92.9526C68.7076 93.4032 68.4801 93.8289 68.1978 94.2178C68.0491 94.4237 67.8852 94.6182 67.7076 94.7998C67.512 94.991 67.2999 95.1646 67.0737 95.3185L65.9664 95.6306C65.6029 95.7318 65.2522 95.8415 64.8972 95.909C65.2022 95.758 65.4922 95.5786 65.7635 95.3734C66.0232 95.189 66.2703 94.9875 66.5031 94.7703C66.9478 94.3765 67.3085 93.8974 67.5639 93.3617C67.8981 92.6773 68.1329 91.9488 68.2612 91.1982C68.3106 90.8829 68.3361 90.5643 68.3373 90.2451C68.332 89.9623 68.3051 89.6804 68.257 89.4016C68.1784 88.9216 68.0061 88.4617 67.7498 88.0479C67.543 87.7128 67.2515 87.4379 66.9046 87.2508C66.7539 87.1705 66.5842 87.1328 66.4137 87.1418C66.2431 87.1507 66.0782 87.2059 65.9368 87.3014C65.5679 87.5644 65.2523 87.895 65.007 88.2756C64.6625 88.7822 64.3667 89.3202 64.1238 89.8824C64.0562 90.0384 63.9843 90.1987 63.9209 90.3632C63.8575 90.5277 63.7857 90.6837 63.7223 90.8482C63.5913 91.1729 63.4687 91.5103 63.3588 91.8561C63.1771 92.4254 63.0038 92.9568 62.8179 93.446C62.6514 93.9148 62.4406 94.3667 62.1882 94.7956C61.9483 95.1971 61.6571 95.5657 61.3218 95.8921C61.1419 96.0628 60.9514 96.222 60.7513 96.3686L60.4216 96.5879L60.2441 96.6892L60.0624 96.7819L58.2705 96.938C58.7731 96.7085 59.22 96.3733 59.5806 95.9553C59.7442 95.7588 59.8926 95.5502 60.0244 95.3312C60.1455 95.1306 60.2528 94.9221 60.3456 94.707C60.501 94.345 60.598 93.9607 60.633 93.5683C60.6783 93.289 60.6526 93.0028 60.558 92.736C60.4635 92.4692 60.3032 92.2304 60.092 92.0417C59.6905 91.7718 59.2172 91.9405 58.6974 92.417C58.4075 92.6968 58.143 93.0016 57.9071 93.328C57.7718 93.5051 57.6535 93.7033 57.5098 93.8973C57.3661 94.0913 57.2267 94.2853 57.0872 94.4877C56.0137 96.1999 55.4432 97.0434 55.1643 97.4398C55.1148 97.2133 54.9994 97.0063 54.8325 96.845C54.6656 96.6837 54.4546 96.5752 54.2261 96.5331C54.7586 95.8794 56.1109 94.0618 56.1109 92.4128C56.1109 90.359 55.1727 89.3468 53.9979 89.3468C52.823 89.3468 51.8848 90.359 51.8848 92.4128C51.8848 94.0618 53.2371 95.8794 53.7739 96.5331C53.5448 96.5749 53.3332 96.6833 53.1656 96.8446C52.9979 97.0059 52.8817 97.2129 52.8314 97.4398C52.5567 97.0561 51.9862 96.221 50.9127 94.4877C50.7821 94.2838 50.641 94.0868 50.4901 93.8973C50.3507 93.7033 50.2281 93.5051 50.0929 93.328C49.8582 93.0006 49.5936 92.6957 49.3026 92.417C48.7828 91.9405 48.3094 91.7718 47.9079 92.0417C47.6967 92.2304 47.5364 92.4692 47.4419 92.736C47.3474 93.0028 47.3216 93.289 47.367 93.5683C47.4035 93.9608 47.5019 94.3451 47.6586 94.707C47.7498 94.9221 47.8557 95.1306 47.9755 95.3312C48.1103 95.5483 48.2585 95.7567 48.4193 95.9553C48.7799 96.3733 49.2268 96.7085 49.7294 96.938L47.9417 96.7819L47.7558 96.6934L47.5825 96.5879C47.4684 96.5162 47.3585 96.4446 47.2529 96.3686C47.0518 96.2232 46.8612 96.064 46.6823 95.8921C46.3458 95.5668 46.0545 95.198 45.816 94.7956C45.5628 94.3671 45.3519 93.9152 45.1863 93.446C44.9961 92.9568 44.8228 92.4254 44.6453 91.8561C44.5354 91.5103 44.4129 91.1729 44.2819 90.8482C44.2142 90.6837 44.1509 90.5234 44.0832 90.3632C44.0156 90.2029 43.948 90.0384 43.8804 89.8824C43.6361 89.32 43.3389 88.782 42.9929 88.2756C42.7476 87.895 42.4321 87.5644 42.0631 87.3014C41.9217 87.2059 41.7568 87.1507 41.5863 87.1418C41.4157 87.1328 41.246 87.1705 41.0953 87.2508C40.749 87.4387 40.4577 87.7134 40.2501 88.0479C39.9939 88.4617 39.8216 88.9216 39.743 89.4016C39.6928 89.6801 39.6659 89.9622 39.6627 90.2451C39.6639 90.5643 39.6893 90.8829 39.7387 91.1982C39.8649 91.9493 40.0998 92.678 40.436 93.3617C40.6914 93.8974 41.0522 94.3765 41.4968 94.7703C41.7378 94.9884 41.9934 95.1898 42.2618 95.3734C42.5342 95.5758 42.8241 95.7536 43.1281 95.9047C42.7731 95.8373 42.4223 95.7276 42.0589 95.6264L40.9516 95.3143C40.7244 95.1618 40.5121 94.9881 40.3177 94.7956C40.1399 94.6129 39.9747 94.4185 39.8233 94.2136C39.5439 93.8236 39.3179 93.3981 39.1513 92.9484C39.0668 92.7249 38.9949 92.4971 38.9273 92.2568C38.8597 92.0164 38.8132 91.7591 38.7667 91.4976C38.6737 90.9705 38.6019 90.4096 38.53 89.8107C38.4878 89.4522 38.4328 89.0938 38.3652 88.748C38.3314 88.5793 38.2976 88.4063 38.2596 88.2419C38.2215 88.0774 38.1877 87.9003 38.1497 87.7316C38.0169 87.1325 37.8258 86.5477 37.5792 85.9856C37.4077 85.5659 37.1582 85.1824 36.8438 84.8554C36.721 84.7347 36.5678 84.6494 36.4004 84.6086C36.233 84.5678 36.0576 84.5729 35.8929 84.6234C35.5163 84.7408 35.1778 84.9562 34.9124 85.2476C34.5841 85.608 34.3299 86.0292 34.1644 86.4875C34.0615 86.7613 33.9823 87.0435 33.9277 87.3309C33.869 87.6441 33.835 87.9614 33.8263 88.2798C33.8145 89.0431 33.9113 89.8042 34.1137 90.5403C34.2735 91.1341 34.5524 91.6894 34.9336 92.1724C35.132 92.4394 35.3481 92.693 35.5802 92.9315C35.7007 93.0588 35.8276 93.1799 35.9605 93.2942C36.0958 93.4081 36.2395 93.5177 36.3831 93.6274L35.8633 93.4081C35.69 93.328 35.5252 93.2394 35.352 93.155L34.3165 92.6363C34.1143 92.4403 33.9278 92.2288 33.7587 92.0037C33.6083 91.7898 33.4754 91.5642 33.3614 91.3289C33.1453 90.8929 32.9916 90.4286 32.905 89.9499C32.8627 89.7095 32.8289 89.4691 32.8078 89.2203C32.7867 88.9715 32.7867 88.7016 32.7867 88.4317C32.7867 87.8876 32.8205 87.3141 32.8585 86.6983C32.8839 86.3356 32.8923 85.973 32.8881 85.6229C32.8881 85.4458 32.8881 85.2729 32.8881 85.1C32.8881 84.9271 32.8881 84.7457 32.8881 84.577C32.8582 83.9601 32.7705 83.3473 32.6261 82.7467C32.5923 82.616 32.5542 82.4937 32.5162 82.3756C32.4782 82.2575 32.4359 82.1394 32.3936 82.034C32.317 81.8377 32.2132 81.6532 32.0851 81.4857C31.9847 81.3414 31.8477 81.2262 31.688 81.1521C31.5283 81.078 31.3518 81.0476 31.1765 81.064C30.4411 81.1357 29.7058 81.6502 29.1437 82.5949C28.487 83.814 28.227 85.2069 28.3999 86.5802C28.423 86.8953 28.4826 87.2066 28.5774 87.5081C28.6759 87.816 28.8003 88.1151 28.9493 88.4021C29.2786 89.0475 29.7063 89.6379 30.2171 90.1523C29.5621 89.7306 28.9493 89.2498 28.3196 88.7859C28.147 88.5514 27.9917 88.3047 27.8547 88.0479C27.7407 87.8059 27.6433 87.5565 27.5631 87.3014C27.4179 86.8253 27.3397 86.3314 27.3307 85.8338C27.3266 85.5847 27.3351 85.3356 27.356 85.0873C27.387 84.8258 27.4251 84.5602 27.4701 84.2902C27.5631 83.7462 27.6941 83.1769 27.8378 82.5611C28.1552 81.2635 28.2791 79.9263 28.2055 78.5927C28.2055 78.4535 28.1717 78.327 28.1505 78.2004C28.1294 78.0739 28.1083 77.9516 28.0829 77.8378C28.0352 77.6285 27.9584 77.4269 27.8547 77.2389C27.7758 77.079 27.6562 76.9427 27.5079 76.8435C27.3595 76.7443 27.1876 76.6858 27.0095 76.6738C26.2614 76.6189 25.45 77.0112 24.7569 77.8588C23.9197 78.9683 23.446 80.3085 23.4003 81.6966C23.3735 82.0229 23.3848 82.3513 23.4341 82.675C23.4838 83.0103 23.563 83.3405 23.6708 83.6619C23.9064 84.38 24.2498 85.0582 24.6893 85.6735C24.0976 85.1421 23.5609 84.5559 22.9988 83.9866C22.8585 83.7135 22.7356 83.4318 22.6312 83.1431C22.5477 82.8812 22.4841 82.6133 22.441 82.3419C22.3671 81.8385 22.3671 81.327 22.441 80.8236C22.4748 80.5712 22.5214 80.3207 22.5804 80.0729C22.6438 79.8157 22.7241 79.5542 22.8129 79.2885C22.9904 78.7529 23.2059 78.2004 23.4426 77.6016C23.5778 77.2642 23.7004 76.9184 23.806 76.5768C23.8567 76.4081 23.9032 76.2394 23.9539 76.0665C24.0047 75.8936 24.0469 75.7249 24.0892 75.5562C24.2459 74.9457 24.3422 74.3214 24.3766 73.6921C24.4115 73.2147 24.3541 72.7351 24.2075 72.2793C24.1504 72.1065 24.0496 71.9513 23.9149 71.8287C23.7802 71.706 23.6161 71.6201 23.4384 71.5793C23.045 71.4987 22.6371 71.5279 22.2593 71.6636C21.7768 71.8389 21.3373 72.115 20.9703 72.4733C19.9937 73.466 19.341 74.7304 19.0981 76.1002C18.9586 76.7849 18.9586 77.4905 19.0981 78.1751C19.1701 78.5492 19.2661 78.9183 19.3855 79.2801C19.5218 79.6592 19.6813 80.0296 19.863 80.3892C19.6179 80.0645 19.3601 79.7524 19.1192 79.4235L18.4219 78.4282C18.0009 77.383 17.9356 76.2287 18.2359 75.1429C18.5866 74.0477 19.0706 72.9996 19.6771 72.0221C20.026 71.3927 20.3283 70.7387 20.5815 70.0652C20.8241 69.4716 21.0081 68.8558 21.1309 68.2265C21.1723 67.9685 21.1921 67.7075 21.19 67.4463C21.2022 67.2239 21.1823 67.0009 21.1309 66.7842C21.095 66.6029 21.0138 66.4337 20.8949 66.2921C20.7759 66.1506 20.623 66.0413 20.4504 65.9744C19.7362 65.7088 18.8276 65.8859 17.9528 66.5269C16.8654 67.3975 16.0634 68.5723 15.6495 69.9008C15.4221 70.5922 15.3358 71.3221 15.3959 72.0474C15.4167 72.4478 15.4718 72.8457 15.5608 73.2367C15.658 73.6584 15.7805 74.0506 15.9284 74.4723L15.303 73.3885C15.0959 73.03 14.9184 72.6589 14.724 72.2962C14.5701 71.6975 14.5074 71.079 14.538 70.4617C14.5824 69.928 14.7048 69.4037 14.9015 68.9055C15.1028 68.405 15.3489 67.9237 15.6368 67.4674C15.9496 66.9824 16.3172 66.4721 16.7103 65.9281C17.134 65.3425 17.5112 64.7249 17.8387 64.0809C18.1369 63.5105 18.3803 62.9132 18.5656 62.2969C18.6431 62.0395 18.6969 61.7755 18.7262 61.5083C18.7517 61.2869 18.7517 61.0634 18.7262 60.842C18.7128 60.6558 18.6528 60.476 18.5517 60.319C18.4505 60.1621 18.3114 60.033 18.1472 59.9437C17.4668 59.5894 16.5497 59.6653 15.6115 60.2052C14.43 60.9566 13.4989 62.0413 12.9363 63.3218C12.6282 64.0166 12.456 64.7638 12.4292 65.5232C12.407 65.9457 12.4254 66.3694 12.4841 66.7884C12.5376 67.2242 12.6179 67.6712 12.725 68.1295L12.2136 66.9402C12.053 66.548 11.884 66.1642 11.7487 65.772C11.6575 65.137 11.6575 64.4923 11.7487 63.8574C11.7699 63.714 11.7952 63.579 11.829 63.4356C11.8629 63.2922 11.9051 63.1699 11.9474 63.0434C12.0325 62.7918 12.1356 62.5465 12.2559 62.3096C12.5188 61.8184 12.8287 61.3537 13.1814 60.9221C13.3631 60.6944 13.5576 60.4624 13.7604 60.222L14.4281 59.4798C14.9166 58.9401 15.3603 58.3619 15.7552 57.7507C15.9453 57.4597 16.1144 57.1687 16.2623 56.8861C16.4183 56.6128 16.5594 56.3312 16.6849 56.0427C16.887 55.5903 16.9893 55.0998 16.985 54.6046C16.9731 54.4125 16.9273 54.2241 16.8497 54.0479C16.7743 53.8776 16.6528 53.7315 16.499 53.6261C15.865 53.2044 14.9437 53.1749 13.9633 53.6261C13.4022 53.8863 12.887 54.2352 12.4376 54.6594C12.1642 54.907 11.9099 55.1749 11.6769 55.4607C11.425 55.7775 11.1935 56.1099 10.9838 56.456C10.5774 57.1451 10.3171 57.9102 10.2189 58.7038C10.1238 59.6192 10.1437 60.5429 10.278 61.4535C10.0625 60.7703 9.885 60.1039 9.69905 59.4671C9.61453 59.1508 9.51732 58.8387 9.44125 58.5309C9.36518 58.223 9.29334 57.9236 9.22149 57.6326C9.29764 57.2308 9.44047 56.8445 9.64411 56.4897C9.86845 56.1092 10.1243 55.748 10.409 55.4101C11.0278 54.7201 11.6023 53.9919 12.1291 53.2297C13.4603 51.1506 13.397 49.7926 12.4756 49.0124C11.5543 48.2322 10.1682 49.1727 9.34828 50.6993C9.07362 51.2677 8.87743 51.8707 8.76506 52.4917C8.68596 52.8797 8.63511 53.273 8.61292 53.6683C8.58948 54.1165 8.58948 54.5655 8.61292 55.0136C8.47768 54.3431 8.33822 53.7484 8.24947 53.2128L8.02126 51.8507C8.05507 51.5807 8.0931 51.2898 8.13536 50.9819C8.17763 50.674 8.24102 50.3535 8.29596 50.0246C8.41007 49.3624 8.5284 48.6666 8.63405 47.9749C8.88585 46.7255 9.01045 45.4538 9.00596 44.1794C8.97525 43.5949 8.89752 43.0139 8.77352 42.4418C8.68308 41.9889 8.53093 41.5504 8.32132 41.1387C7.91983 40.4217 7.3831 40 6.76186 40C6.14061 40 5.57853 40.4217 5.22353 41.164C5.02512 41.5983 4.88856 42.0583 4.81781 42.5304C4.73653 43.1426 4.71671 43.7614 4.75865 44.3776C4.79668 45.5036 5.24466 46.908 5.73912 48.2659C6.0096 48.9449 6.30543 49.6113 6.58436 50.2354C6.72805 50.5433 6.85483 50.8469 7.00697 51.1295C7.15912 51.4121 7.27322 51.682 7.39156 51.935C7.45072 52.3103 7.52679 52.7785 7.61132 53.3098C7.69584 53.8412 7.82685 54.4527 7.95364 55.1275C7.78882 54.6805 7.61132 54.284 7.42537 53.8623C7.23941 53.4406 7.07037 53.1116 6.88442 52.7827C6.57346 52.2098 6.19306 51.6772 5.7518 51.197C4.54311 49.9318 2.9583 49.1895 2.27365 50.3156C1.58901 51.4416 1.96937 53.0737 3.98103 54.7606C4.75143 55.3376 5.57501 55.8403 6.44067 56.262C6.86328 56.4855 7.24364 56.6837 7.60287 56.9536C7.94984 57.1865 8.2591 57.4709 8.51995 57.7971L8.73126 58.708C8.8031 59.0159 8.9003 59.3322 8.98483 59.6527C9.16655 60.2979 9.3356 60.9727 9.54691 61.6644C9.16253 60.8091 8.68943 59.9963 8.13536 59.2394C7.66487 58.5653 7.07819 57.9798 6.40263 57.5103C6.05134 57.2767 5.68733 57.0626 5.31228 56.8693C4.98449 56.6857 4.64577 56.5223 4.29799 56.3801C3.71743 56.1335 3.10107 55.9811 2.47228 55.9288C1.37348 55.8571 0.532469 56.2493 0.14366 57.038C0.0476839 57.235 -0.0014857 57.4515 -2.96139e-05 57.6706C0.00235116 57.9137 0.0511168 58.1541 0.14366 58.3791C0.38302 58.9325 0.722561 59.4372 1.14526 59.8678C1.38789 60.1225 1.64619 60.362 1.91866 60.5847C2.21393 60.8194 2.52299 61.0363 2.84419 61.2342C3.50958 61.6472 4.21813 61.9866 4.95728 62.2463L5.9293 62.5795L6.8337 62.8874C7.37948 63.0742 7.91062 63.3011 8.42274 63.5664C8.66448 63.6934 8.89871 63.8342 9.12429 63.9881C9.23417 64.0682 9.34405 64.1568 9.45393 64.2453C9.56381 64.3339 9.67792 64.4267 9.78357 64.5279C10.264 64.9741 10.6833 65.4818 11.0303 66.0377C11.1655 66.4341 11.3304 66.8263 11.4909 67.2228L11.977 68.4289C11.7276 68.0072 11.4656 67.6403 11.1951 67.286C10.9246 66.9318 10.6415 66.607 10.371 66.2992C9.84534 65.7102 9.22027 65.2178 8.52417 64.8442C6.96049 64.0007 5.56585 63.6043 4.44591 63.6507C3.32597 63.6971 2.53568 64.1821 2.23562 65.0087C2.16649 65.2309 2.14358 65.4648 2.16829 65.6961C2.193 65.9275 2.2648 66.1514 2.37931 66.354C2.50316 66.6088 2.66095 66.8457 2.84841 67.0583C3.0609 67.3026 3.29115 67.531 3.53728 67.7415C4.09762 68.2125 4.71358 68.6133 5.37144 68.935C6.07614 69.2755 6.81584 69.5385 7.57751 69.7194L9.47084 70.1412C10.0283 70.2618 10.5763 70.4224 11.1106 70.6219C11.6226 70.818 12.1059 71.0819 12.5475 71.4063C13.0624 71.7697 13.5307 72.1946 13.9421 72.6715C14.1323 73.0427 14.3098 73.4222 14.5169 73.7891L15.1381 74.8941C14.8465 74.544 14.5507 74.2193 14.2464 73.9199C13.9421 73.6204 13.659 73.3294 13.3547 73.0764C12.7708 72.5949 12.1148 72.2078 11.4107 71.9293C9.76667 71.2545 8.30864 71.0268 7.20983 71.1913C6.11102 71.3557 5.38412 71.9166 5.18549 72.777C5.14559 73.0084 5.15232 73.2455 5.20529 73.4743C5.25827 73.7031 5.35641 73.9191 5.494 74.1096C5.65033 74.3462 5.83169 74.5654 6.03495 74.7633C6.27501 74.9873 6.53374 75.1905 6.80834 75.3706C7.42249 75.7777 8.08377 76.1091 8.77774 76.3575C9.51806 76.6217 10.2868 76.7987 11.0683 76.8846C12.2639 76.9749 13.4533 77.1326 14.631 77.357C15.7532 77.6364 16.7894 78.1867 17.6485 78.9596L18.35 79.9802C18.5909 80.3175 18.8487 80.6423 19.0981 80.9712C18.7769 80.6844 18.443 80.423 18.1218 80.1741C17.8154 79.9296 17.4951 79.7029 17.1625 79.4952C16.5418 79.1125 15.8703 78.8186 15.1677 78.6222C13.4519 78.1583 11.9558 78.1119 10.8993 78.4029C10.4247 78.52 9.98815 78.7567 9.63143 79.0903C9.31929 79.394 9.12724 79.7997 9.09048 80.2332C9.08132 80.4704 9.11958 80.707 9.20302 80.9293C9.28646 81.1516 9.41342 81.3551 9.57649 81.5279C9.9861 81.9953 10.4883 82.373 11.0514 82.6371C11.7238 82.9662 12.4332 83.214 13.1645 83.3751C13.3561 83.4173 13.5463 83.4552 13.7351 83.489C13.9295 83.5227 14.1323 83.5438 14.3267 83.5649C14.7215 83.5999 15.1179 83.614 15.5143 83.607L17.4034 83.5564C17.695 83.5564 17.9697 83.5564 18.2486 83.5564C18.5275 83.5564 18.798 83.5564 19.06 83.5944C19.5897 83.6395 20.1119 83.7486 20.6153 83.9191C20.8807 84.0119 21.1404 84.1203 21.3929 84.2439C21.6824 84.3684 21.9646 84.5092 22.2381 84.6656C22.796 85.2602 23.3369 85.8633 23.9286 86.4116C23.27 85.9982 22.5837 85.6304 21.8747 85.3108C21.2263 85.0419 20.5459 84.8576 19.8503 84.7626C18.0753 84.5433 16.5793 84.7035 15.5777 85.1253C14.5761 85.547 13.9928 86.2977 14.0351 87.2002C14.0932 87.6842 14.339 88.1263 14.7198 88.4317C14.9406 88.6252 15.1814 88.7949 15.4382 88.9377C15.5734 89.0136 15.7171 89.0896 15.8608 89.157C16.0045 89.2245 16.1778 89.2836 16.3468 89.3384C17.8237 89.821 19.3966 89.9354 20.928 89.6715L22.7622 89.3384C23.0453 89.292 23.3158 89.2498 23.582 89.2161C23.8483 89.1823 24.1188 89.1444 24.3808 89.1233C24.9011 89.0818 25.4246 89.1017 25.9403 89.1823C26.2115 89.2256 26.4797 89.2862 26.7432 89.3637C27.0222 89.4396 27.3095 89.5282 27.5885 89.642C28.2308 90.127 28.8563 90.6373 29.5198 91.0675C28.833 90.7854 28.1269 90.5529 27.4067 90.3716C27.0702 90.2925 26.7284 90.2376 26.384 90.2071C26.0539 90.1772 25.7223 90.1659 25.3909 90.1734C23.6032 90.2367 22.1409 90.6204 21.2154 91.1898C20.7911 91.436 20.4408 91.7914 20.2011 92.2188C19.9908 92.6053 19.9278 93.0547 20.0236 93.484C20.161 93.9606 20.4815 94.3638 20.9153 94.6058C21.3085 94.8501 21.7357 95.0348 22.1832 95.1541C22.348 95.1962 22.5213 95.23 22.6988 95.2595C23.45 95.3832 24.2138 95.4129 24.9725 95.3481C25.1669 95.3481 25.3613 95.3143 25.5599 95.289C25.7585 95.2637 25.9572 95.2173 26.1516 95.1751C26.5427 95.0918 26.9281 94.9833 27.3053 94.8504C27.9392 94.6311 28.5055 94.4287 29.038 94.2305C29.3043 94.1335 29.5579 94.0491 29.8157 93.969C30.0735 93.8889 30.3228 93.8045 30.5764 93.7413C31.0716 93.608 31.5808 93.533 32.0936 93.5177C32.3615 93.5095 32.6297 93.518 32.8965 93.543C33.1898 93.563 33.4818 93.5982 33.7714 93.6485L34.8321 94.1925C35.0096 94.2811 35.1829 94.3739 35.3604 94.4582L35.8929 94.6901L35.3393 94.6016C35.1533 94.5763 34.98 94.5383 34.8026 94.513C34.4596 94.4616 34.1138 94.4306 33.7671 94.4202C33.1136 94.401 32.4599 94.4562 31.8189 94.5847C31.021 94.7476 30.2421 94.9921 29.4945 95.3143C29.1817 95.452 28.8782 95.6097 28.5858 95.7867C28.3332 95.9386 28.0942 96.1122 27.8716 96.3054C27.4919 96.625 27.207 97.0421 27.0475 97.5115C26.9127 97.9264 26.9337 98.3761 27.1067 98.7767C27.3312 99.2239 27.7204 99.5669 28.1928 99.7341C28.7924 99.9804 29.4381 100.095 30.0861 100.071C30.851 100.062 31.6117 99.9583 32.3514 99.7636C32.5415 99.713 32.7317 99.6581 32.9219 99.5949C33.1121 99.5316 33.3023 99.4557 33.4882 99.3756C33.8588 99.2226 34.2201 99.048 34.5701 98.8526C35.1406 98.5279 35.652 98.2158 36.1338 97.9375C36.3747 97.7983 36.6071 97.6718 36.8396 97.5453C37.072 97.4188 37.3044 97.2922 37.5369 97.1826C37.9913 96.9616 38.469 96.7919 38.9611 96.6765C39.216 96.6183 39.4743 96.5761 39.7345 96.55C40.0007 96.55 40.2881 96.4867 40.5797 96.4825L41.7166 96.8157C42.0885 96.9253 42.4519 97.0434 42.8196 97.1151C42.4519 97.1151 42.1054 97.1151 41.7631 97.1446C41.4302 97.1601 41.0986 97.1953 40.7699 97.2501C40.1494 97.3591 39.5429 97.5359 38.9611 97.7772C38.2065 98.0848 37.4856 98.4692 36.81 98.9243C36.525 99.1159 36.2538 99.3273 35.9986 99.5569C35.7775 99.7513 35.5752 99.9659 35.3942 100.198C35.0803 100.577 34.8744 101.033 34.7983 101.518C34.7382 101.962 34.8451 102.413 35.0984 102.783C35.4077 103.186 35.8627 103.453 36.3662 103.525C36.9999 103.662 37.6555 103.662 38.2891 103.525C39.0404 103.374 39.7701 103.13 40.4614 102.8C40.6389 102.716 40.8164 102.627 40.9897 102.53C41.1629 102.433 41.3362 102.323 41.5053 102.214C41.8397 101.994 42.1602 101.753 42.4646 101.493C42.9591 101.071 43.3986 100.679 43.8128 100.32C44.2269 99.9618 44.62 99.6497 45.0299 99.3419C45.4252 99.0435 45.85 98.7863 46.2978 98.5743C46.5308 98.4703 46.7692 98.3788 47.012 98.3002C47.1388 98.2622 47.2656 98.2243 47.4008 98.1947L47.6036 98.1483L47.815 98.0935L49.6872 98.2749C49.1275 98.4144 48.5996 98.6591 48.1319 98.996C47.8995 99.1647 47.7093 99.3418 47.4938 99.5148C47.3128 99.6724 47.1406 99.84 46.9782 100.017C46.7057 100.311 46.4818 100.647 46.3147 101.012C46.1705 101.269 46.1101 101.565 46.1419 101.858C46.1737 102.152 46.2961 102.428 46.4922 102.648C46.8725 103.07 47.6797 102.994 48.5038 102.648C48.941 102.458 49.3527 102.215 49.7294 101.923C49.9287 101.777 50.1154 101.615 50.2873 101.438C50.4436 101.257 50.5958 101.067 50.7352 100.873C51.9524 99.1858 52.5736 98.3634 52.8483 98.005C52.9063 98.2181 53.0236 98.4104 53.1867 98.5597C53.3498 98.709 53.5519 98.8091 53.7696 98.8484C53.1357 99.6118 51.3227 101.99 51.3227 104.141C51.3227 106.743 52.5145 108.03 53.9852 108.03C55.4559 108.03 56.6477 106.743 56.6477 104.141C56.6477 101.99 54.8346 99.6118 54.2007 98.8484C54.4192 98.8098 54.6223 98.71 54.7861 98.5607C54.95 98.4114 55.068 98.2186 55.1262 98.005C55.4094 98.355 56.0222 99.1521 57.2393 100.877C57.3788 101.071 57.5309 101.261 57.6873 101.442C57.8577 101.619 58.043 101.781 58.2409 101.927C58.6198 102.218 59.0328 102.462 59.4708 102.652C60.316 103.002 61.1021 103.074 61.4782 102.652C61.6742 102.432 61.7966 102.156 61.8285 101.863C61.8603 101.569 61.7999 101.274 61.6557 101.016C61.4904 100.65 61.2663 100.314 60.9922 100.021C60.8323 99.8432 60.6615 99.6756 60.4808 99.519C60.2864 99.3461 60.0582 99.1689 59.8384 99.0002C59.3853 98.6538 58.8705 98.3963 58.3212 98.2411L60.1934 98.0598L60.4047 98.1146L60.6034 98.161C60.7386 98.1905 60.8654 98.2285 60.9922 98.2664C61.2366 98.3443 61.4765 98.4358 61.7106 98.5406C62.1579 98.7535 62.5826 99.0107 62.9785 99.3081C63.4011 99.616 63.7772 99.9281 64.1914 100.287C64.6056 100.645 65.0366 101.041 65.5396 101.459C65.8455 101.719 66.1673 101.96 66.5031 102.18C66.6694 102.294 66.8415 102.4 67.0187 102.496C67.192 102.593 67.3653 102.682 67.547 102.766C68.2372 103.096 68.9653 103.339 69.715 103.492C70.3501 103.629 71.0071 103.629 71.6422 103.492C72.1464 103.421 72.6023 103.154 72.91 102.749C73.1671 102.381 73.2744 101.929 73.2101 101.484C73.1375 100.999 72.9328 100.542 72.6184 100.164C72.4359 99.9322 72.2322 99.7175 72.0098 99.5232C71.7552 99.2946 71.4855 99.0832 71.2026 98.8906C70.527 98.4355 69.8061 98.0511 69.0515 97.7435C68.4663 97.5076 67.8569 97.3365 67.2342 97.2332C66.9056 97.1782 66.574 97.143 66.2411 97.1278C65.8988 97.1278 65.5522 97.1278 65.1845 97.0982C65.5522 97.0265 65.9157 96.9085 66.2876 96.7988L67.4244 96.4656C67.7245 96.4656 68.0119 96.512 68.2697 96.5331C68.5302 96.5568 68.7886 96.5991 69.043 96.6596C69.5352 96.775 70.0128 96.9448 70.4673 97.1657C70.6997 97.2754 70.9322 97.3977 71.1646 97.5284C71.397 97.6591 71.6295 97.7814 71.8704 97.9206C72.3521 98.199 72.8635 98.511 73.4383 98.8358C73.7869 99.0311 74.1467 99.2057 74.516 99.3587C74.7019 99.4388 74.8921 99.5105 75.0865 99.578C75.2809 99.6455 75.4626 99.6961 75.6528 99.7467C76.3938 99.9414 77.156 100.045 77.9223 100.055C78.5703 100.078 79.2158 99.9632 79.8156 99.7172C80.2871 99.5486 80.6758 99.2059 80.9017 98.7599C81.0747 98.3593 81.0957 97.9096 80.9609 97.4947C80.7972 97.0321 80.5127 96.6215 80.1368 96.3054C79.9134 96.1132 79.6745 95.9397 79.4225 95.7867C79.1283 95.6106 78.8234 95.4529 78.5097 95.3143C77.7625 94.9909 76.9835 94.7464 76.1853 94.5847C75.5443 94.456 74.8906 94.4008 74.237 94.4202C73.8904 94.4308 73.5446 94.4618 73.2016 94.513C73.0241 94.5383 72.8508 94.5763 72.6649 94.6016L72.1113 94.6901L72.6438 94.4582C72.8213 94.3739 72.9945 94.2811 73.172 94.1925L74.2328 93.6485C74.5224 93.5982 74.8144 93.563 75.1076 93.543C75.3745 93.518 75.6427 93.5095 75.9106 93.5177C76.4247 93.533 76.9353 93.608 77.432 93.7413C77.6828 93.8059 77.9363 93.8818 78.1927 93.969C78.4463 94.0491 78.7041 94.1335 78.9703 94.2305C79.5028 94.416 80.0691 94.6522 80.6989 94.8504C81.0762 94.9828 81.4615 95.0912 81.8526 95.1751C82.0512 95.2173 82.2499 95.2595 82.4485 95.289C82.6471 95.3185 82.8415 95.3354 83.0359 95.3481C83.7946 95.4127 84.5583 95.3829 85.3096 95.2595C85.4871 95.23 85.6562 95.1962 85.8252 95.1541C85.9833 95.1136 86.1386 95.0629 86.2901 95.0022C86.5719 94.9009 86.8413 94.7679 87.0931 94.6058C87.525 94.3626 87.8438 93.9597 87.9806 93.484C88.08 93.0553 88.0184 92.6051 87.8073 92.2188C87.5671 91.7904 87.2151 91.4348 86.7888 91.1898C85.8675 90.6204 84.401 90.2367 82.6133 90.1734C82.2833 90.1659 81.9531 90.1772 81.6244 90.2071C81.2785 90.2372 80.9353 90.2922 80.5974 90.3716C79.8779 90.5548 79.1718 90.7873 78.4843 91.0675C79.1563 90.6457 79.7733 90.127 80.4157 89.642C80.6924 89.5359 80.9746 89.4444 81.2609 89.3679C81.5239 89.2875 81.7922 89.2255 82.0639 89.1823C82.5796 89.1017 83.103 89.0818 83.6234 89.1233C83.8854 89.1233 84.1516 89.1739 84.4221 89.2161C84.6926 89.2582 84.9631 89.292 85.242 89.3384L87.0804 89.6715C88.6128 89.9373 90.1872 89.8243 91.6658 89.3426C91.8348 89.2878 91.9954 89.2245 92.1518 89.1612C92.3082 89.098 92.4476 89.0179 92.5744 88.9419C92.8305 88.7981 93.0712 88.6285 93.2929 88.4359C93.6742 88.1316 93.9189 87.6886 93.9733 87.2044C94.0198 86.3019 93.4408 85.5554 92.4307 85.1295C91.4207 84.7035 89.9331 84.5475 88.1623 84.7668C87.823 84.8127 87.487 84.8803 87.1564 84.9692C86.8082 85.0617 86.4665 85.1772 86.1337 85.3151C85.4306 85.6395 84.7514 86.0129 84.1009 86.4326C84.701 85.8844 85.242 85.2771 85.7914 84.6867C86.065 84.5304 86.3472 84.3896 86.6366 84.2649C86.8895 84.1421 87.1491 84.0337 87.4142 83.9402C87.9177 83.7701 88.4399 83.661 88.9695 83.6155C89.2357 83.5902 89.5062 83.5817 89.7809 83.5775C90.0556 83.5733 90.3345 83.5775 90.6261 83.5775L92.5195 83.6281C92.9144 83.635 93.3094 83.6209 93.7028 83.586C93.9014 83.586 94.1001 83.5438 94.2945 83.51C94.4889 83.4763 94.679 83.4384 94.8692 83.3962C95.6002 83.2337 96.3094 82.986 96.9823 82.6581C97.5442 82.3941 98.0451 82.0164 98.453 81.549C98.6102 81.3698 98.73 81.1612 98.8055 80.9352C98.881 80.7093 98.9106 80.4707 98.8925 80.2332C98.8543 79.7993 98.6608 79.3936 98.3474 79.0903C97.9919 78.755 97.5549 78.518 97.0795 78.4029C96.0272 78.1119 94.5438 78.1583 92.8111 78.6222C92.1083 78.8199 91.4368 79.1152 90.8163 79.4994C90.4825 79.7053 90.1621 79.9321 89.857 80.1784C89.5358 80.423 89.2019 80.6844 88.8807 80.9754C89.1301 80.6423 89.3879 80.3175 89.6288 79.9802L90.3303 78.9638C91.1896 78.1881 92.2276 77.6361 93.352 77.357C94.5296 77.132 95.7191 76.9743 96.9147 76.8846C97.6961 76.7978 98.4647 76.6209 99.2053 76.3575C99.8993 76.1091 100.561 75.7777 101.175 75.3706C101.449 75.1894 101.707 74.9863 101.948 74.7633C102.151 74.5654 102.333 74.3462 102.489 74.1096C102.627 73.9194 102.725 73.7032 102.777 73.4743C102.83 73.2453 102.835 73.0081 102.793 72.777C102.595 71.9335 101.868 71.3557 100.769 71.1913C99.6702 71.0268 98.2121 71.2545 96.5724 71.9293C95.8793 72.2196 95.2361 72.6166 94.6664 73.1059C94.3579 73.3547 94.0747 73.6457 93.7704 73.9494C93.4661 74.253 93.1703 74.5778 92.8787 74.9278C93.09 74.5567 93.3013 74.1856 93.4999 73.8187C93.6986 73.4517 93.8845 73.0722 94.0789 72.7053C94.4868 72.2203 94.9539 71.7882 95.4693 71.419C95.9124 71.0944 96.3971 70.8306 96.9105 70.6346C97.4444 70.434 97.9925 70.2733 98.5502 70.1538L100.444 69.7321C101.205 69.5505 101.945 69.2875 102.65 68.9477C103.306 68.6249 103.92 68.2242 104.48 67.7542C104.728 67.5458 104.958 67.3173 105.168 67.0709C105.357 66.8584 105.516 66.6215 105.642 66.3667C105.755 66.1637 105.827 65.9398 105.851 65.7086C105.876 65.4775 105.854 65.2437 105.785 65.0213C105.485 64.1779 104.695 63.7182 103.588 63.676C102.481 63.6338 101.073 64.0176 99.5096 64.8695C98.8155 65.2443 98.192 65.7366 97.667 66.3245C97.3923 66.6323 97.1091 66.9613 96.8217 67.3156C96.5343 67.6698 96.2934 68.0494 96.0399 68.4542C96.2047 68.0325 96.3695 67.6487 96.5301 67.2481C96.6907 66.8474 96.8555 66.4594 96.9908 66.063C97.3377 65.5082 97.7554 65.0007 98.2333 64.5532C98.3431 64.4562 98.453 64.3592 98.5671 64.2707C98.6812 64.1821 98.7827 64.0977 98.8968 64.0134C99.1212 63.8577 99.3555 63.7168 99.5983 63.5917C100.11 63.3257 100.641 63.0987 101.187 62.9127L102.092 62.6048L103.064 62.2716C103.796 62.0116 104.498 61.6722 105.156 61.2595C105.478 61.0616 105.789 60.8447 106.086 60.61C106.357 60.3873 106.614 60.1478 106.855 59.8931C107.28 59.4647 107.62 58.9595 107.856 58.4044C107.952 58.1803 108.002 57.9395 108.004 57.6959C108.009 57.4665 107.958 57.2393 107.856 57.0337Z" fill="url(#paint0_linear_638_13479)"/>
<path d="M36.0083 76.11C35.455 76.11 34.9317 76.04 34.4383 75.9C33.9517 75.76 33.545 75.57 33.2183 75.33L33.6683 74.11C33.9817 74.33 34.3383 74.5033 34.7383 74.63C35.145 74.7567 35.5683 74.82 36.0083 74.82C36.4883 74.82 36.8317 74.7467 37.0383 74.6C37.2517 74.4467 37.3583 74.2567 37.3583 74.03C37.3583 73.8367 37.285 73.6833 37.1383 73.57C36.9917 73.4567 36.735 73.36 36.3683 73.28L35.2383 73.04C33.9783 72.7733 33.3483 72.12 33.3483 71.08C33.3483 70.6333 33.4683 70.2433 33.7083 69.91C33.9483 69.57 34.2817 69.3067 34.7083 69.12C35.1417 68.9333 35.6417 68.84 36.2083 68.84C36.695 68.84 37.1517 68.91 37.5783 69.05C38.005 69.19 38.3583 69.3867 38.6383 69.64L38.1883 70.78C37.6417 70.3467 36.9783 70.13 36.1983 70.13C35.7783 70.13 35.4517 70.2133 35.2183 70.38C34.9917 70.54 34.8783 70.75 34.8783 71.01C34.8783 71.2033 34.9483 71.36 35.0883 71.48C35.2283 71.6 35.4717 71.6967 35.8183 71.77L36.9483 72.01C38.2417 72.29 38.8883 72.9233 38.8883 73.91C38.8883 74.35 38.7683 74.7367 38.5283 75.07C38.295 75.3967 37.9617 75.6533 37.5283 75.84C37.1017 76.02 36.595 76.11 36.0083 76.11ZM42.0281 76V70.23H39.6981V68.95H45.9081V70.23H43.5781V76H42.0281ZM50.1165 76.11C49.4232 76.11 48.8132 75.96 48.2865 75.66C47.7665 75.3533 47.3599 74.93 47.0665 74.39C46.7799 73.8433 46.6365 73.2033 46.6365 72.47C46.6365 71.7367 46.7799 71.1 47.0665 70.56C47.3599 70.0133 47.7665 69.59 48.2865 69.29C48.8065 68.99 49.4165 68.84 50.1165 68.84C50.8165 68.84 51.4265 68.99 51.9465 69.29C52.4732 69.59 52.8799 70.0133 53.1665 70.56C53.4599 71.1 53.6065 71.7333 53.6065 72.46C53.6065 73.1933 53.4599 73.8333 53.1665 74.38C52.8799 74.9267 52.4732 75.3533 51.9465 75.66C51.4265 75.96 50.8165 76.11 50.1165 76.11ZM50.1165 74.79C50.7032 74.79 51.1599 74.5867 51.4865 74.18C51.8199 73.7667 51.9865 73.1967 51.9865 72.47C51.9865 71.7367 51.8232 71.17 51.4965 70.77C51.1699 70.3633 50.7099 70.16 50.1165 70.16C49.5365 70.16 49.0799 70.3633 48.7465 70.77C48.4199 71.17 48.2565 71.7367 48.2565 72.47C48.2565 73.1967 48.4199 73.7667 48.7465 74.18C49.0799 74.5867 49.5365 74.79 50.1165 74.79ZM55.4055 76V68.95H58.6255C59.4122 68.95 60.0188 69.14 60.4455 69.52C60.8722 69.9 61.0855 70.43 61.0855 71.11C61.0855 71.6367 60.9488 72.0767 60.6755 72.43C60.4088 72.7767 60.0255 73.0133 59.5255 73.14C59.8788 73.2467 60.1688 73.5033 60.3955 73.91L61.5355 76H59.8255L58.6055 73.75C58.5055 73.57 58.3822 73.4467 58.2355 73.38C58.0888 73.3067 57.9155 73.27 57.7155 73.27H56.9555V76H55.4055ZM56.9555 72.15H58.3455C59.1788 72.15 59.5955 71.8167 59.5955 71.15C59.5955 70.49 59.1788 70.16 58.3455 70.16H56.9555V72.15ZM62.9684 76V68.95H67.7984V70.16H64.4484V71.81H67.5784V73.03H64.4484V74.79H67.7984V76H62.9684ZM72.0454 76.11C71.4921 76.11 70.9688 76.04 70.4754 75.9C69.9888 75.76 69.5821 75.57 69.2554 75.33L69.7054 74.11C70.0188 74.33 70.3754 74.5033 70.7754 74.63C71.1821 74.7567 71.6054 74.82 72.0454 74.82C72.5254 74.82 72.8688 74.7467 73.0754 74.6C73.2888 74.4467 73.3954 74.2567 73.3954 74.03C73.3954 73.8367 73.3221 73.6833 73.1754 73.57C73.0288 73.4567 72.7721 73.36 72.4054 73.28L71.2754 73.04C70.0154 72.7733 69.3854 72.12 69.3854 71.08C69.3854 70.6333 69.5054 70.2433 69.7454 69.91C69.9854 69.57 70.3188 69.3067 70.7454 69.12C71.1788 68.9333 71.6788 68.84 72.2454 68.84C72.7321 68.84 73.1888 68.91 73.6154 69.05C74.0421 69.19 74.3954 69.3867 74.6754 69.64L74.2254 70.78C73.6788 70.3467 73.0154 70.13 72.2354 70.13C71.8154 70.13 71.4888 70.2133 71.2554 70.38C71.0288 70.54 70.9154 70.75 70.9154 71.01C70.9154 71.2033 70.9854 71.36 71.1254 71.48C71.2654 71.6 71.5088 71.6967 71.8554 71.77L72.9854 72.01C74.2788 72.29 74.9254 72.9233 74.9254 73.91C74.9254 74.35 74.8054 74.7367 74.5654 75.07C74.3321 75.3967 73.9988 75.6533 73.5654 75.84C73.1388 76.02 72.6321 76.11 72.0454 76.11Z" fill="url(#paint1_linear_638_13479)"/>
<circle cx="85" cy="22" r="1" fill="url(#paint2_linear_638_13479)"/>
<circle cx="89" cy="27" r="1" fill="url(#paint3_linear_638_13479)"/>
<circle cx="23" cy="22" r="1" fill="url(#paint4_linear_638_13479)"/>
<circle cx="19" cy="27" r="1" fill="url(#paint5_linear_638_13479)"/>
<path d="M80.5291 18.9685C80.8085 19.097 81.097 18.8085 80.9685 18.5291L80.329 17.1384C80.2887 17.0506 80.2887 16.9494 80.329 16.8616L80.9685 15.4709C81.097 15.1915 80.8085 14.903 80.5291 15.0315L79.1384 15.671C79.0506 15.7113 78.9494 15.7113 78.8616 15.671L77.4709 15.0315C77.1914 14.903 76.903 15.1915 77.0315 15.4709L77.671 16.8616C77.7113 16.9494 77.7113 17.0506 77.671 17.1384L77.0315 18.5291C76.903 18.8086 77.1915 19.097 77.4709 18.9685L78.8616 18.329C78.9494 18.2887 79.0506 18.2887 79.1384 18.329L80.5291 18.9685Z" fill="url(#paint6_linear_638_13479)"/>
<path d="M30.5291 18.9685C30.8085 19.097 31.097 18.8085 30.9685 18.5291L30.329 17.1384C30.2887 17.0506 30.2887 16.9494 30.329 16.8616L30.9685 15.4709C31.097 15.1915 30.8085 14.903 30.5291 15.0315L29.1384 15.671C29.0506 15.7113 28.9494 15.7113 28.8616 15.671L27.4709 15.0315C27.1914 14.903 26.903 15.1915 27.0315 15.4709L27.671 16.8616C27.7113 16.9494 27.7113 17.0506 27.671 17.1384L27.0315 18.5291C26.903 18.8086 27.1915 19.097 27.4709 18.9685L28.8616 18.329C28.9494 18.2887 29.0506 18.2887 29.1384 18.329L30.5291 18.9685Z" fill="url(#paint7_linear_638_13479)"/>
<path fill-rule="evenodd" clip-rule="evenodd" d="M100.196 44C97.7851 19.7074 77.9989 0.8 54 0.8C30.0011 0.8 10.2149 19.7074 7.80376 44H6.99999C9.41486 19.2867 29.5359 0 54 0C78.4641 0 98.5851 19.2867 101 44H100.196Z" fill="url(#paint8_linear_638_13479)"/>
<path d="M42.5974 39V30.922H39.3354V29.13H48.0294V30.922H44.7674V39H42.5974ZM53.4812 39.154C52.5105 39.154 51.6565 38.944 50.9192 38.524C50.1912 38.0947 49.6218 37.502 49.2112 36.746C48.8098 35.9807 48.6092 35.0847 48.6092 34.058C48.6092 33.0313 48.8098 32.14 49.2112 31.384C49.6218 30.6187 50.1912 30.026 50.9192 29.606C51.6472 29.186 52.5012 28.976 53.4812 28.976C54.4612 28.976 55.3152 29.186 56.0432 29.606C56.7805 30.026 57.3498 30.6187 57.7512 31.384C58.1618 32.14 58.3672 33.0267 58.3672 34.044C58.3672 35.0707 58.1618 35.9667 57.7512 36.732C57.3498 37.4973 56.7805 38.0947 56.0432 38.524C55.3152 38.944 54.4612 39.154 53.4812 39.154ZM53.4812 37.306C54.3025 37.306 54.9418 37.0213 55.3992 36.452C55.8658 35.8733 56.0992 35.0753 56.0992 34.058C56.0992 33.0313 55.8705 32.238 55.4132 31.678C54.9558 31.1087 54.3118 30.824 53.4812 30.824C52.6692 30.824 52.0298 31.1087 51.5632 31.678C51.1058 32.238 50.8772 33.0313 50.8772 34.058C50.8772 35.0753 51.1058 35.8733 51.5632 36.452C52.0298 37.0213 52.6692 37.306 53.4812 37.306ZM60.4458 39V29.13H64.9538C66.0551 29.13 66.9044 29.41 67.5018 29.97C68.0991 30.5207 68.3978 31.2907 68.3978 32.28C68.3978 33.2693 68.0991 34.044 67.5018 34.604C66.9044 35.164 66.0551 35.444 64.9538 35.444H62.6158V39H60.4458ZM62.6158 33.764H64.5898C65.7378 33.764 66.3118 33.2693 66.3118 32.28C66.3118 31.3093 65.7378 30.824 64.5898 30.824H62.6158V33.764Z" fill="url(#paint9_linear_638_13479)"/>
<g clip-path="url(#clip1_638_13479)">
<path fill-rule="evenodd" clip-rule="evenodd" d="M54 22C59.5228 22 64 17.5228 64 12C64 6.47715 59.5228 2 54 2C48.4772 2 44 6.47715 44 12C44 17.5228 48.4772 22 54 22ZM57.2949 14.488V4.9668H52.7764V7.5758H54.6859V14.488C54.6859 15.5368 53.8252 16.3976 52.7764 16.3976C51.7275 16.3976 50.8669 15.537 50.8669 14.488H48.2579C48.2579 16.9891 50.2745 19.0333 52.7764 19.0333C55.2782 19.0333 57.2949 16.9893 57.2949 14.488Z" fill="url(#paint10_linear_638_13479)"/>
</g>
<path d="M14.5379 40.3217C14.6966 39.8928 15.3034 39.8928 15.4621 40.3217L16.2521 42.4568C16.302 42.5916 16.4084 42.698 16.5432 42.7479L18.6783 43.5379C19.1072 43.6966 19.1072 44.3034 18.6783 44.4621L16.5432 45.2521C16.4084 45.302 16.302 45.4084 16.2521 45.5432L15.4621 47.6783C15.3034 48.1072 14.6966 48.1072 14.5379 47.6783L13.7479 45.5432C13.698 45.4084 13.5916 45.302 13.4568 45.2521L11.3217 44.4621C10.8928 44.3034 10.8928 43.6966 11.3217 43.5379L13.4568 42.7479C13.5916 42.698 13.698 42.5916 13.7479 42.4568L14.5379 40.3217Z" fill="url(#paint11_linear_638_13479)"/>
<path d="M92.5379 40.3217C92.6966 39.8928 93.3034 39.8928 93.4621 40.3217L94.2521 42.4568C94.302 42.5916 94.4084 42.698 94.5432 42.7479L96.6783 43.5379C97.1072 43.6966 97.1072 44.3034 96.6783 44.4621L94.5432 45.2521C94.4084 45.302 94.302 45.4084 94.2521 45.5432L93.4621 47.6783C93.3034 48.1072 92.6966 48.1072 92.5379 47.6783L91.7479 45.5432C91.698 45.4084 91.5916 45.302 91.4568 45.2521L89.3217 44.4621C88.8928 44.3034 88.8928 43.6966 89.3217 43.5379L91.4568 42.7479C91.5916 42.698 91.698 42.5916 91.7479 42.4568L92.5379 40.3217Z" fill="url(#paint12_linear_638_13479)"/>
<path d="M69.5131 57.5L67.9716 56.6059L74.4869 45.5L76.0125 46.3941L69.5131 57.5ZM67.9081 52.5588C66.9864 52.5588 66.2713 52.2556 65.7628 51.649C65.2543 51.032 65 50.2059 65 49.1706C65 48.1353 65.2543 47.3144 65.7628 46.7078C66.2819 46.1013 66.997 45.798 67.9081 45.798C68.8191 45.798 69.5289 46.1065 70.0375 46.7235C70.5566 47.3301 70.8161 48.1458 70.8161 49.1706C70.8161 50.2059 70.5566 51.032 70.0375 51.649C69.5289 52.2556 68.8191 52.5588 67.9081 52.5588ZM67.9081 51.0529C68.2153 51.0529 68.4537 50.9065 68.6232 50.6137C68.8033 50.3105 68.8933 49.8294 68.8933 49.1706C68.8933 48.5118 68.8033 48.0412 68.6232 47.7588C68.4537 47.466 68.2153 47.3196 67.9081 47.3196C67.5902 47.3196 67.3466 47.4608 67.1771 47.7431C67.0076 48.0255 66.9228 48.5013 66.9228 49.1706C66.9228 49.8503 67.0076 50.3366 67.1771 50.6294C67.3466 50.9118 67.5902 51.0529 67.9081 51.0529ZM76.0919 57.202C75.1703 57.202 74.4552 56.8987 73.9467 56.2922C73.4381 55.6752 73.1839 54.8438 73.1839 53.798C73.1839 52.7627 73.4381 51.9471 73.9467 51.351C74.4658 50.7444 75.1809 50.4412 76.0919 50.4412C77.003 50.4412 77.7128 50.7444 78.2213 51.351C78.7404 51.9575 79 52.7732 79 53.798C79 54.8438 78.7457 55.6752 78.2372 56.2922C77.7287 56.8987 77.0136 57.202 76.0919 57.202ZM76.0919 55.6804C76.4098 55.6804 76.6534 55.534 76.8229 55.2412C76.9924 54.9484 77.0772 54.4673 77.0772 53.798C77.0772 53.1497 76.9871 52.6791 76.807 52.3863C76.6375 52.0935 76.3992 51.9471 76.0919 51.9471C75.7741 51.9471 75.5305 52.0882 75.361 52.3706C75.1914 52.6529 75.1067 53.1288 75.1067 53.798C75.1067 54.4778 75.1914 54.9641 75.361 55.2569C75.5305 55.5392 75.7741 55.6804 76.0919 55.6804Z" fill="url(#paint13_linear_638_13479)"/>
<path d="M34.8094 62V58.952H38.6014V49.232L35.6974 50.936L34.2814 48.224L39.6814 45.08H42.3214V58.952H45.8734V62H34.8094ZM54.4 62.264C52.352 62.264 50.784 61.504 49.696 59.984C48.624 58.464 48.088 56.296 48.088 53.48C48.088 50.664 48.624 48.52 49.696 47.048C50.784 45.56 52.352 44.816 54.4 44.816C56.448 44.816 58.008 45.56 59.08 47.048C60.168 48.52 60.712 50.664 60.712 53.48C60.712 56.296 60.168 58.464 59.08 59.984C58.008 61.504 56.448 62.264 54.4 62.264ZM54.4 59.24C55.328 59.24 56.016 58.784 56.464 57.872C56.912 56.944 57.136 55.48 57.136 53.48C57.136 51.48 56.912 50.04 56.464 49.16C56.016 48.28 55.328 47.84 54.4 47.84C53.472 47.84 52.784 48.28 52.336 49.16C51.888 50.04 51.664 51.48 51.664 53.48C51.664 55.48 51.888 56.944 52.336 57.872C52.784 58.784 53.472 59.24 54.4 59.24Z" fill="url(#paint14_linear_638_13479)"/>
</g>
<defs>
<linearGradient id="paint0_linear_638_13479" x1="54.0022" y1="40" x2="54.0022" y2="108.03" gradientUnits="userSpaceOnUse">
<stop stop-color="#CF9034"/>
<stop offset="1" stop-color="#A36710"/>
</linearGradient>
<linearGradient id="paint1_linear_638_13479" x1="54" y1="61" x2="54" y2="84" gradientUnits="userSpaceOnUse">
<stop stop-color="#CF9034"/>
<stop offset="1" stop-color="#A36710"/>
</linearGradient>
<linearGradient id="paint2_linear_638_13479" x1="85" y1="21" x2="85" y2="23" gradientUnits="userSpaceOnUse">
<stop stop-color="#CF9034"/>
<stop offset="1" stop-color="#A36710"/>
</linearGradient>
<linearGradient id="paint3_linear_638_13479" x1="89" y1="26" x2="89" y2="28" gradientUnits="userSpaceOnUse">
<stop stop-color="#CF9034"/>
<stop offset="1" stop-color="#A36710"/>
</linearGradient>
<linearGradient id="paint4_linear_638_13479" x1="23" y1="21" x2="23" y2="23" gradientUnits="userSpaceOnUse">
<stop stop-color="#CF9034"/>
<stop offset="1" stop-color="#A36710"/>
</linearGradient>
<linearGradient id="paint5_linear_638_13479" x1="19" y1="26" x2="19" y2="28" gradientUnits="userSpaceOnUse">
<stop stop-color="#CF9034"/>
<stop offset="1" stop-color="#A36710"/>
</linearGradient>
<linearGradient id="paint6_linear_638_13479" x1="79" y1="15" x2="79" y2="19" gradientUnits="userSpaceOnUse">
<stop stop-color="#CF9034"/>
<stop offset="1" stop-color="#A36710"/>
</linearGradient>
<linearGradient id="paint7_linear_638_13479" x1="29" y1="15" x2="29" y2="19" gradientUnits="userSpaceOnUse">
<stop stop-color="#CF9034"/>
<stop offset="1" stop-color="#A36710"/>
</linearGradient>
<linearGradient id="paint8_linear_638_13479" x1="54" y1="0" x2="54" y2="44" gradientUnits="userSpaceOnUse">
<stop stop-color="#CF9034"/>
<stop offset="1" stop-color="#CD8F33"/>
</linearGradient>
<linearGradient id="paint9_linear_638_13479" x1="54" y1="23" x2="54" y2="46" gradientUnits="userSpaceOnUse">
<stop stop-color="#CF9034"/>
<stop offset="1" stop-color="#A36710"/>
</linearGradient>
<linearGradient id="paint10_linear_638_13479" x1="54" y1="2" x2="54" y2="22" gradientUnits="userSpaceOnUse">
<stop stop-color="#CF9034"/>
<stop offset="1" stop-color="#A36710"/>
</linearGradient>
<linearGradient id="paint11_linear_638_13479" x1="15" y1="40" x2="15" y2="48" gradientUnits="userSpaceOnUse">
<stop stop-color="#CF9034"/>
<stop offset="1" stop-color="#A36710"/>
</linearGradient>
<linearGradient id="paint12_linear_638_13479" x1="93" y1="40" x2="93" y2="48" gradientUnits="userSpaceOnUse">
<stop stop-color="#CF9034"/>
<stop offset="1" stop-color="#A36710"/>
</linearGradient>
<linearGradient id="paint13_linear_638_13479" x1="72" y1="45.5" x2="72" y2="57.5" gradientUnits="userSpaceOnUse">
<stop stop-color="#CF9034"/>
<stop offset="1" stop-color="#A36710"/>
</linearGradient>
<linearGradient id="paint14_linear_638_13479" x1="47" y1="43" x2="47" y2="66" gradientUnits="userSpaceOnUse">
<stop stop-color="#CF9034"/>
<stop offset="1" stop-color="#A36710"/>
</linearGradient>
<clipPath id="clip0_638_13479">
<rect width="108" height="108" fill="white"/>
</clipPath>
<clipPath id="clip1_638_13479">
<rect width="20" height="20" fill="white" transform="translate(44 2)"/>
</clipPath>
</defs>
</svg>
