<?xml version="1.0" encoding="UTF-8" standalone="no"?>
<svg
   width="108"
   height="108"
   viewBox="0 0 108 108"
   fill="none"
   version="1.1"
   id="svg135"
   sodipodi:docname="gold.svg"
   inkscape:version="1.1 (c4e8f9e, 2021-05-24)"
   xmlns:inkscape="http://www.inkscape.org/namespaces/inkscape"
   xmlns:sodipodi="http://sodipodi.sourceforge.net/DTD/sodipodi-0.dtd"
   xmlns="http://www.w3.org/2000/svg"
   xmlns:svg="http://www.w3.org/2000/svg">
  <sodipodi:namedview
     id="namedview137"
     pagecolor="#ffffff"
     bordercolor="#666666"
     borderopacity="1.0"
     inkscape:pageshadow="2"
     inkscape:pageopacity="0.0"
     inkscape:pagecheckerboard="0"
     showgrid="false"
     inkscape:zoom="6.9722222"
     inkscape:cx="54"
     inkscape:cy="54"
     inkscape:window-width="1312"
     inkscape:window-height="983"
     inkscape:window-x="0"
     inkscape:window-y="25"
     inkscape:window-maximized="0"
     inkscape:current-layer="svg135" />
  <path
     d="M11.7258 48.5528C10.8904 49.1629 10.1447 49.926 9.51742 50.8129C9.01136 51.6183 8.59222 52.4932 8.26946 53.4181C8.15372 52.3937 7.96698 51.382 7.71109 50.3928C7.44988 49.1187 7.0254 47.8979 6.45197 46.7715C5.81346 45.4765 4.95911 44.3438 3.9393 43.4401C3.37792 42.9625 2.75239 42.5972 2.0883 42.3589C2.04084 42.652 1.97105 43.1437 1.91521 43.7722C1.88303 44.5327 1.90264 45.295 1.97384 46.0518C2.14135 47.7745 2.45404 49.7675 3.54565 51.5065C5.14538 54.1671 7.06897 54.7631 8.01261 54.978C8.02793 55.5234 7.99425 56.0691 7.91211 56.6063C9.02885 56.5021 11.2428 55.9028 13.5544 53.9587C14.2259 53.3934 14.8428 52.7448 15.3943 52.0243C15.8999 51.4623 16.3615 50.8487 16.7734 50.1909C17.0801 49.6992 17.3527 49.1797 17.5887 48.6375C17.7672 48.3228 17.9303 47.9967 18.0772 47.6605C17.3047 47.4072 16.5067 47.2747 15.7042 47.2665C15.0638 47.2611 14.425 47.3408 13.8001 47.5042C13.0672 47.7295 12.3678 48.083 11.7258 48.5528Z"
     fill="url(#paint0_linear_630_42383)"
     id="path9" />
  <path
     d="M14.7298 38.2165C13.8215 38.5306 12.9765 39.0545 12.2451 39.7569C11.5851 40.3625 10.9865 41.0542 10.4611 41.8183C10.6001 40.8392 10.66 39.847 10.6397 38.8548C10.5895 37.5827 10.4267 36.3201 10.154 35.087C9.36945 31.7034 7.50729 30.1208 6.92379 29.7495C6.54298 30.857 6.25683 32.0056 6.06948 33.1787C5.8046 35.0326 5.93598 36.9342 6.45197 38.7148C6.80555 39.9363 7.42169 41.0317 8.24154 41.8964C8.75397 42.4453 9.33713 42.897 9.9697 43.2349C9.89579 43.7625 9.74469 44.2714 9.523 44.7394C11.4932 45.0683 13.503 44.7468 15.3245 43.8113C16.7247 43.2029 18.0173 42.3 19.1381 41.1474C19.8012 40.5651 20.3971 39.8854 20.911 39.1251C19.9873 38.4927 18.963 38.0861 17.9004 37.9299C16.8378 37.7737 15.7591 37.8712 14.7298 38.2165Z"
     fill="url(#paint1_linear_630_42383)"
     id="path11" />
  <path
     d="M19.8361 29.0561C18.9136 29.1353 18.0078 29.3859 17.1531 29.7985C16.4128 30.1746 15.7242 30.6761 15.1095 31.2868C15.3949 30.3779 15.6345 29.4504 15.827 28.509C16.0899 27.3199 16.1981 26.0915 16.1481 24.8649C16.1077 23.4653 15.8227 22.0901 15.3105 20.8235C15.022 20.1389 14.638 19.5149 14.1742 18.9771C13.5544 19.7716 11.5918 23.3571 11.9408 27.2487C12.259 30.2805 13.6159 31.8078 14.3138 32.4591C14.1111 32.9173 13.8638 33.3468 13.5768 33.739C15.3785 34.5879 17.3426 34.8567 19.2638 34.5173C20.0405 34.3769 20.8055 34.159 21.5503 33.866C22.1859 33.6526 22.8035 33.3725 23.3957 33.029C23.9206 32.7327 24.3254 32.4005 24.6828 32.153C25.0401 31.9055 25.3081 31.7036 25.4617 31.5799C24.9155 30.9725 24.3013 30.4544 23.6358 30.0395C22.4764 29.2933 21.1573 28.9519 19.8361 29.0561Z"
     fill="url(#paint2_linear_630_42383)"
     id="path13" />
  <path
     d="M26.6873 21.5693C26.2278 21.4597 25.7604 21.4008 25.2914 21.3934C24.8642 21.4099 24.4387 21.4632 24.0183 21.553C23.2517 21.7263 22.5031 21.9937 21.7848 22.3509C22.2735 21.6134 22.6954 20.8189 23.0439 19.9801C23.2543 19.4591 23.4407 18.9254 23.6023 18.3811C23.799 17.8124 23.9541 17.2252 24.0658 16.6259C24.6883 13.3856 23.7307 11.1321 23.379 10.5361C22.7033 11.2233 20.0567 13.8806 19.649 17.7005C19.5088 18.6669 19.5395 19.6566 19.7392 20.6086C19.9389 21.5607 20.3035 22.455 20.8105 23.2367C20.5521 23.6382 20.2367 23.9851 19.878 24.2625C21.3827 25.5646 23.1679 26.3538 25.0345 26.542C26.7431 26.8156 28.1056 26.516 29.2223 26.2783C29.9934 26.1204 30.7441 25.8479 31.4558 25.4674C30.9287 24.4748 30.2343 23.6175 29.4146 22.9474C28.5949 22.2773 27.667 21.8085 26.6873 21.5693Z"
     fill="url(#paint3_linear_630_42383)"
     id="path15" />
  <path
     d="M34.8982 16.2416C34.1058 15.8381 33.2632 15.5852 32.4022 15.4926C32.0056 15.4405 31.606 15.4253 31.2073 15.447C30.836 15.4926 30.4787 15.5577 30.1436 15.6359C30.3809 15.3949 30.6462 15.1083 30.9198 14.7729C31.1934 14.4375 31.5033 14.1216 31.7992 13.7406C32.4687 12.8826 33.024 11.9122 33.4464 10.8618C34.0271 9.354 34.2672 8.15885 34.2839 7.11024C34.2989 6.3951 34.2121 5.68202 34.0271 5C33.223 5.32565 30.2888 7.31215 29.0743 10.6338C28.4412 12.4141 28.4351 14.4138 29.0576 16.1993C28.7215 16.4921 28.3433 16.7126 27.9409 16.8506C29.0866 18.5094 30.608 19.7606 32.3324 20.4621C33.8149 21.0287 35.2527 21.3837 36.336 21.3739C37.4192 21.3641 38.2651 21.2925 38.6169 21.2306C38.3946 20.4493 38.0828 19.7066 37.69 19.0227C37.0049 17.805 36.0365 16.8403 34.8982 16.2416Z"
     fill="url(#paint4_linear_630_42383)"
     id="path17" />
  <path
     d="M96.2491 48.5042C97.0859 49.1107 97.8334 49.8706 98.463 50.7545C98.9719 51.5589 99.393 52.434 99.7166 53.3597C99.8273 52.3349 100.008 51.3221 100.258 50.3311C100.516 49.0489 100.937 47.8193 101.509 46.6838C102.146 45.3852 103.001 44.2491 104.022 43.3426C104.582 42.8613 105.208 42.4936 105.873 42.2549C105.917 42.548 105.99 43.0365 106.048 43.6682C106.083 44.4285 106.065 45.1908 105.995 45.9478C105.834 47.6705 105.526 49.6635 104.44 51.4058C102.846 54.0761 100.925 54.6786 99.9734 54.8968C99.9599 55.4424 99.9955 55.9881 100.08 56.5251C98.9628 56.4274 96.7488 55.8347 94.4288 53.897C93.7565 53.3342 93.1379 52.6889 92.5834 51.9724C92.0778 51.4117 91.6154 50.8004 91.2014 50.1455C90.894 49.6553 90.6196 49.1382 90.3806 48.5986C90.1405 48.172 89.9814 47.8333 89.8893 47.6217C90.6616 47.3656 91.4595 47.2298 92.2623 47.2179C92.9034 47.2101 93.5431 47.2877 94.1692 47.4491C94.9048 47.6741 95.6063 48.03 96.2491 48.5042Z"
     fill="url(#paint5_linear_630_42383)"
     id="path19" />
  <path
     d="M93.2199 38.1872C94.1298 38.4962 94.9762 39.0181 95.7075 39.7211C96.3704 40.3226 96.9718 41.0109 97.4998 41.7727C97.3576 40.795 97.295 39.8039 97.3128 38.8125C97.3576 37.5385 97.5167 36.2735 97.7874 35.0382C98.5608 31.6318 100.417 30.0524 101.001 29.6812C101.385 30.786 101.675 31.9324 101.866 33.1038C102.139 34.9628 102.012 36.8715 101.498 38.6594C101.149 39.8822 100.536 40.98 99.7194 41.8476C99.2087 42.3986 98.6275 42.8534 97.9968 43.1958C98.0709 43.7228 98.2229 44.2308 98.4463 44.6971C96.477 45.0333 94.4664 44.7197 92.642 43.7918C91.2401 43.1903 89.9447 42.2941 88.82 41.1474C88.1551 40.569 87.5573 39.8926 87.0416 39.1349C87.9624 38.4963 88.985 38.0829 90.0472 37.92C91.1094 37.7571 92.1889 37.848 93.2199 38.1872Z"
     fill="url(#paint6_linear_630_42383)"
     id="path21" />
  <path
     d="M88.0885 29.0367C89.0114 29.1131 89.918 29.3604 90.7743 29.7694C91.5141 30.1422 92.2028 30.6404 92.8179 31.2479C92.5308 30.3402 92.2894 29.4138 92.0948 28.4733C91.8279 27.2805 91.7159 26.0478 91.7626 24.8162C91.7976 23.4166 92.0779 22.0401 92.5862 20.7716C92.8674 20.0867 93.2449 19.4615 93.7029 18.9219C94.3255 19.7132 96.2993 23.2889 95.9671 27.1837C95.66 30.2156 94.3087 31.7429 93.6108 32.3942C93.8197 32.8567 94.0726 33.2904 94.3646 33.687C92.5636 34.5474 90.5975 34.8275 88.672 34.4979C87.8943 34.3578 87.1284 34.1399 86.3827 33.8466C85.7466 33.6362 85.128 33.3594 84.5345 33.0195C84.0068 32.7231 83.602 32.3909 83.2446 32.1467C82.8873 31.9025 82.6165 31.7006 82.4629 31.5768C83.0086 30.9685 83.6218 30.4482 84.286 30.0299C85.4455 29.2799 86.7655 28.935 88.0885 29.0367Z"
     fill="url(#paint7_linear_630_42383)"
     id="path23" />
  <path
     d="M81.215 21.5791C81.6741 21.4656 82.1416 21.4045 82.6109 21.3967C83.0381 21.4102 83.4637 21.4624 83.884 21.553C84.6572 21.72 85.4126 21.9843 86.137 22.3411C85.6404 21.6078 85.21 20.8166 84.8528 19.9801C84.6423 19.4602 84.456 18.9275 84.2944 18.3844C84.0948 17.8159 83.937 17.2287 83.8226 16.6291C83.1972 13.3856 84.1464 11.1321 84.4898 10.5361C85.1682 11.2233 87.8233 13.8676 88.2421 17.7005C88.3855 18.6649 88.3587 19.6534 88.1634 20.6053C87.968 21.5572 87.6081 22.4526 87.1058 23.2367C87.3646 23.637 87.681 23.9819 88.0411 24.2559C86.5385 25.5561 84.7565 26.3451 82.8929 26.5355C81.1843 26.8156 79.8218 26.5355 78.7051 26.288C77.9283 26.1363 77.1719 25.867 76.4549 25.4869C76.98 24.4935 77.6728 23.6348 78.491 22.9631C79.3093 22.2913 80.236 21.8205 81.215 21.5791Z"
     fill="url(#paint8_linear_630_42383)"
     id="path25" />
  <path
     d="M72.9818 16.2805C73.7722 15.8751 74.6128 15.619 75.4721 15.5217C75.8697 15.4687 76.2701 15.4523 76.6698 15.4729C77.0412 15.5152 77.3985 15.5803 77.7335 15.6585C77.4934 15.4175 77.231 15.1309 76.9546 14.7988C76.6782 14.4666 76.3683 14.1475 76.0724 13.7697C75.4037 12.9134 74.8485 11.9453 74.4252 10.8974C73.8417 9.3929 73.5876 8.19775 73.5876 7.14588C73.5678 6.43163 73.6499 5.7185 73.8305 5.03564C74.6458 5.3613 77.5744 7.33476 78.7972 10.6532C79.4358 12.4309 79.4478 14.4306 78.8307 16.2186C79.1668 16.5114 79.545 16.732 79.9475 16.8699C78.8062 18.5345 77.2877 19.7925 75.5643 20.501C74.0846 21.0741 72.6468 21.4323 71.5663 21.4258C70.4859 21.4193 69.6372 21.3509 69.2854 21.2923C69.5092 20.5101 69.8219 19.7664 70.2151 19.0811C70.89 17.8594 71.8498 16.8878 72.9818 16.2805Z"
     fill="url(#paint9_linear_630_42383)"
     id="path27" />
  <path
     fill-rule="evenodd"
     clip-rule="evenodd"
     d="M25 97.168C23.8634 96.2162 22.7645 95.1941 21.7084 94.1039C14.2266 86.3811 9.39186 75.7625 8.09637 64.2074C7.40356 58.2985 7.68021 52.2899 8.91159 46.5016C10.7605 37.7984 14.6475 29.8662 20.1381 23.5911C25.6288 17.3159 32.507 12.9449 40.0044 10.9662C40.0711 10.9453 40.1407 10.9404 40.209 10.9518C40.2773 10.9631 40.343 10.9905 40.402 11.0322C40.461 11.074 40.5121 11.1293 40.5523 11.1947C40.5925 11.2601 40.6209 11.3344 40.6358 11.413C40.6507 11.4916 40.6518 11.5729 40.639 11.652C40.6263 11.7311 40.5999 11.8064 40.5615 11.8733C40.5231 11.9402 40.4735 11.9973 40.4157 12.0412C40.3578 12.0851 40.293 12.1149 40.225 12.1288C32.9118 14.0595 26.2026 18.3234 20.8467 24.4443C15.4907 30.5652 11.6988 38.3023 9.89432 46.7914C8.69537 52.4342 8.42724 58.2915 9.10422 64.0511C10.4093 75.6703 15.3792 86.3054 23.0439 93.881C23.6802 94.5124 24.3327 95.1193 25 95.701V97.168ZM83 97.2748C84.1602 96.3041 85.2811 95.2602 86.3575 94.1454C93.8453 86.3903 98.6689 75.7318 99.9344 64.1453C100.611 58.2339 100.318 52.2261 99.0689 46.4428C97.194 37.7461 93.2836 29.8285 87.7743 23.5742C82.265 17.3198 75.3737 12.9749 67.8699 11.0246C67.741 11.0005 67.6091 11.0349 67.5013 11.1206C67.3934 11.2064 67.3178 11.3371 67.29 11.4858C67.2621 11.6346 67.2841 11.7901 67.3515 11.9206C67.4188 12.051 67.5264 12.1464 67.6522 12.1872C74.9717 14.0891 81.6938 18.3273 87.0677 24.4282C92.4415 30.5291 96.2554 38.2526 98.0834 46.7359C99.2975 52.3752 99.5818 58.2324 98.9209 63.9955C97.6491 75.6206 92.7091 86.2756 85.0649 93.8808C84.3945 94.55 83.7056 95.1919 83 95.8059V97.2748Z"
     fill="url(#paint10_linear_630_42383)"
     id="path29" />
  <path
     d="M30.5633 95L27.0763 87.245H28.9023L31.3003 92.811L33.6983 87.245H35.4473L31.9603 95H30.5633ZM36.4365 95V87.245H41.7495V88.576H38.0645V90.391H41.5075V91.733H38.0645V93.669H41.7495V95H36.4365ZM43.4966 95V87.245H47.0386C47.904 87.245 48.5713 87.454 49.0406 87.872C49.51 88.29 49.7446 88.873 49.7446 89.621C49.7446 90.2003 49.5943 90.6843 49.2936 91.073C49.0003 91.4543 48.5786 91.7147 48.0286 91.854C48.4173 91.9713 48.7363 92.2537 48.9856 92.701L50.2396 95H48.3586L47.0166 92.525C46.9066 92.327 46.771 92.1913 46.6096 92.118C46.4483 92.0373 46.2576 91.997 46.0376 91.997H45.2016V95H43.4966ZM45.2016 90.765H46.7306C47.6473 90.765 48.1056 90.3983 48.1056 89.665C48.1056 88.939 47.6473 88.576 46.7306 88.576H45.2016V90.765ZM51.5558 95V87.245H53.2608V95H51.5558ZM55.2107 95V87.245H60.4467V88.576H56.9157V90.468H60.2047V91.799H56.9157V95H55.2107ZM61.8841 95V87.245H63.5891V95H61.8841ZM65.539 95V87.245H70.852V88.576H67.167V90.391H70.61V91.733H67.167V93.669H70.852V95H65.539ZM72.5992 95V87.245H75.6352C76.9552 87.245 77.9782 87.5823 78.7042 88.257C79.4302 88.9243 79.7932 89.8777 79.7932 91.117C79.7932 92.3563 79.4302 93.3133 78.7042 93.988C77.9782 94.6627 76.9552 95 75.6352 95H72.5992ZM74.3042 93.603H75.5362C77.1862 93.603 78.0112 92.7743 78.0112 91.117C78.0112 89.467 77.1862 88.642 75.5362 88.642H74.3042V93.603ZM27.8588 107V99.245H31.4008C32.2662 99.245 32.9335 99.454 33.4028 99.872C33.8722 100.29 34.1068 100.873 34.1068 101.621C34.1068 102.2 33.9565 102.684 33.6558 103.073C33.3625 103.454 32.9408 103.715 32.3908 103.854C32.7795 103.971 33.0985 104.254 33.3478 104.701L34.6018 107H32.7208L31.3788 104.525C31.2688 104.327 31.1332 104.191 30.9718 104.118C30.8105 104.037 30.6198 103.997 30.3998 103.997H29.5638V107H27.8588ZM29.5638 102.765H31.0928C32.0095 102.765 32.4678 102.398 32.4678 101.665C32.4678 100.939 32.0095 100.576 31.0928 100.576H29.5638V102.765ZM35.918 107V99.245H41.231V100.576H37.546V102.391H40.989V103.733H37.546V105.669H41.231V107H35.918ZM45.4972 107L42.0102 99.245H43.8362L46.2342 104.811L48.6322 99.245H50.3812L46.8942 107H45.4972ZM51.3704 107V99.245H53.0754V107H51.3704ZM55.0252 107V99.245H60.3382V100.576H56.6532V102.391H60.0962V103.733H56.6532V105.669H60.3382V107H55.0252ZM64.2524 107L61.4914 99.245H63.2404L65.0224 104.547L66.9034 99.245H68.1354L69.9614 104.635L71.8094 99.245H73.4594L70.6764 107H69.2904L67.4754 101.852L65.6384 107H64.2524ZM77.4283 107.121C76.8196 107.121 76.244 107.044 75.7013 106.89C75.166 106.736 74.7186 106.527 74.3593 106.263L74.8543 104.921C75.199 105.163 75.5913 105.354 76.0313 105.493C76.4786 105.632 76.9443 105.702 77.4283 105.702C77.9563 105.702 78.334 105.621 78.5613 105.46C78.796 105.291 78.9133 105.082 78.9133 104.833C78.9133 104.62 78.8326 104.452 78.6713 104.327C78.51 104.202 78.2276 104.096 77.8243 104.008L76.5813 103.744C75.1953 103.451 74.5023 102.732 74.5023 101.588C74.5023 101.097 74.6343 100.668 74.8983 100.301C75.1623 99.927 75.529 99.6373 75.9983 99.432C76.475 99.2267 77.025 99.124 77.6483 99.124C78.1836 99.124 78.686 99.201 79.1553 99.355C79.6246 99.509 80.0133 99.7253 80.3213 100.004L79.8263 101.258C79.225 100.781 78.4953 100.543 77.6373 100.543C77.1753 100.543 76.816 100.635 76.5593 100.818C76.31 100.994 76.1853 101.225 76.1853 101.511C76.1853 101.724 76.2623 101.896 76.4163 102.028C76.5703 102.16 76.838 102.266 77.2193 102.347L78.4623 102.611C79.885 102.919 80.5963 103.616 80.5963 104.701C80.5963 105.185 80.4643 105.61 80.2003 105.977C79.9436 106.336 79.577 106.619 79.1003 106.824C78.631 107.022 78.0736 107.121 77.4283 107.121Z"
     fill="url(#paint11_linear_630_42383)"
     id="path31" />
  <circle
     cx="83.5"
     cy="96.5"
     r="1.5"
     fill="url(#paint13_linear_630_42383)"
     id="circle35" />
  <circle
     cx="24.5"
     cy="96.5"
     r="1.5"
     fill="url(#paint14_linear_630_42383)"
     id="circle37" />
  <g
     clip-path="url(#clip0_630_42383)"
     id="g41">
    <path
       fill-rule="evenodd"
       clip-rule="evenodd"
       d="M54 20C59.5228 20 64 15.5228 64 10C64 4.47715 59.5228 0 54 0C48.4772 0 44 4.47715 44 10C44 15.5228 48.4772 20 54 20ZM57.2949 12.488V2.9668H52.7764V5.5758H54.6859V12.488C54.6859 13.5368 53.8252 14.3976 52.7764 14.3976C51.7275 14.3976 50.8669 13.537 50.8669 12.488H48.2579C48.2579 14.9891 50.2745 17.0333 52.7764 17.0333C55.2782 17.0333 57.2949 14.9893 57.2949 12.488Z"
       fill="url(#paint15_linear_630_42383)"
       id="path39" />
  </g>
  <path
     fill-rule="evenodd"
     clip-rule="evenodd"
     d="M54.6782 34.8783C55.3874 34.5587 55.8804 33.8513 55.8804 33.0299C55.8804 31.9088 54.962 31 53.8291 31C52.6962 31 51.7778 31.9088 51.7778 33.0299C51.7778 33.9969 52.461 34.8059 53.3758 35.0101C52.6258 36.9017 51.3635 39.2339 49.6604 39.3898C48.0239 39.5397 46.4482 37.6374 45.4295 36.0487C45.9604 35.6818 46.3077 35.0726 46.3077 34.3832C46.3077 33.2621 45.3893 32.3533 44.2564 32.3533C43.1235 32.3533 42.2051 33.2621 42.2051 34.3832C42.2051 35.465 43.0603 36.3491 44.1381 36.4098C43.9054 38.4603 43.2914 41.1626 41.6755 41.7921C40.1279 42.3951 38.2288 40.8758 36.9702 39.5818C37.6417 39.2483 38.1026 38.5606 38.1026 37.7664C38.1026 36.6453 37.1842 35.7365 36.0513 35.7365C34.9184 35.7365 34 36.6453 34 37.7664C34 38.8875 34.9184 39.7963 36.0513 39.7963C36.081 39.7963 36.1106 39.7957 36.14 39.7945L39.0717 49.5996C39.0717 49.5996 48.2448 47.7213 54.1736 47.7979C60.1178 47.8746 69.2755 50 69.2755 50L71.9298 39.7962C71.9361 39.7963 71.9424 39.7963 71.9487 39.7963C73.0816 39.7963 74 38.8875 74 37.7664C74 36.6453 73.0816 35.7365 71.9487 35.7365C70.8158 35.7365 69.8974 36.6453 69.8974 37.7664C69.8974 38.5388 70.3334 39.2104 70.9751 39.5535C69.4844 41.0217 67.1325 42.8457 65.4566 41.7921C64.1194 40.9515 63.6919 38.5802 63.5682 36.7448C64.6233 36.661 65.4531 35.7871 65.4531 34.7215C65.4531 33.6004 64.5347 32.6916 63.4018 32.6916C62.2689 32.6916 61.3505 33.6004 61.3505 34.7215C61.3505 35.4197 61.7068 36.0356 62.2492 36.4009C61.0826 37.9868 59.3027 39.8574 57.6453 39.3898C56.1181 38.959 55.1866 36.6817 54.6782 34.8783Z"
     fill="url(#paint16_linear_630_42383)"
     id="path43" />
  <defs
     id="defs133">
    <linearGradient
       id="paint0_linear_630_42383"
       x1="9.98872"
       y1="42.3589"
       x2="9.98872"
       y2="56.6063"
       gradientUnits="userSpaceOnUse">
      <stop
         stop-color="#EFBD59"
         id="stop45" />
      <stop
         offset="1"
         stop-color="#D2920F"
         id="stop47" />
    </linearGradient>
    <linearGradient
       id="paint1_linear_630_42383"
       x1="13.4236"
       y1="29.7495"
       x2="13.4236"
       y2="44.8647"
       gradientUnits="userSpaceOnUse">
      <stop
         stop-color="#EFBD59"
         id="stop50" />
      <stop
         offset="1"
         stop-color="#D2920F"
         id="stop52" />
    </linearGradient>
    <linearGradient
       id="paint2_linear_630_42383"
       x1="18.6806"
       y1="18.9771"
       x2="18.6806"
       y2="34.66"
       gradientUnits="userSpaceOnUse">
      <stop
         stop-color="#EFBD59"
         id="stop55" />
      <stop
         offset="1"
         stop-color="#D2920F"
         id="stop57" />
    </linearGradient>
    <linearGradient
       id="paint3_linear_630_42383"
       x1="25.5092"
       y1="10.5361"
       x2="25.5092"
       y2="26.651"
       gradientUnits="userSpaceOnUse">
      <stop
         stop-color="#EFBD59"
         id="stop60" />
      <stop
         offset="1"
         stop-color="#D2920F"
         id="stop62" />
    </linearGradient>
    <linearGradient
       id="paint4_linear_630_42383"
       x1="33.2789"
       y1="5"
       x2="33.2789"
       y2="21.3741"
       gradientUnits="userSpaceOnUse">
      <stop
         stop-color="#EFBD59"
         id="stop65" />
      <stop
         offset="1"
         stop-color="#D2920F"
         id="stop67" />
    </linearGradient>
    <linearGradient
       id="paint5_linear_630_42383"
       x1="97.9773"
       y1="42.2549"
       x2="97.9773"
       y2="56.5251"
       gradientUnits="userSpaceOnUse">
      <stop
         stop-color="#EFBD59"
         id="stop70" />
      <stop
         offset="1"
         stop-color="#D2920F"
         id="stop72" />
    </linearGradient>
    <linearGradient
       id="paint6_linear_630_42383"
       x1="94.5239"
       y1="29.6812"
       x2="94.5239"
       y2="44.8282"
       gradientUnits="userSpaceOnUse">
      <stop
         stop-color="#EFBD59"
         id="stop75" />
      <stop
         offset="1"
         stop-color="#D2920F"
         id="stop77" />
    </linearGradient>
    <linearGradient
       id="paint7_linear_630_42383"
       x1="89.2337"
       y1="18.9219"
       x2="89.2337"
       y2="34.6321"
       gradientUnits="userSpaceOnUse">
      <stop
         stop-color="#EFBD59"
         id="stop80" />
      <stop
         offset="1"
         stop-color="#D2920F"
         id="stop82" />
    </linearGradient>
    <linearGradient
       id="paint8_linear_630_42383"
       x1="82.3939"
       y1="10.5361"
       x2="82.3939"
       y2="26.6524"
       gradientUnits="userSpaceOnUse">
      <stop
         stop-color="#EFBD59"
         id="stop85" />
      <stop
         offset="1"
         stop-color="#D2920F"
         id="stop87" />
    </linearGradient>
    <linearGradient
       id="paint9_linear_630_42383"
       x1="74.6164"
       y1="5.03564"
       x2="74.6164"
       y2="21.4259"
       gradientUnits="userSpaceOnUse">
      <stop
         stop-color="#EFBD59"
         id="stop90" />
      <stop
         offset="1"
         stop-color="#D2920F"
         id="stop92" />
    </linearGradient>
    <linearGradient
       id="paint10_linear_630_42383"
       x1="54.0067"
       y1="10.9458"
       x2="54.0067"
       y2="97.2748"
       gradientUnits="userSpaceOnUse">
      <stop
         stop-color="#EFBD59"
         id="stop95" />
      <stop
         offset="1"
         stop-color="#D2920F"
         id="stop97" />
    </linearGradient>
    <linearGradient
       id="paint11_linear_630_42383"
       x1="54"
       y1="85"
       x2="54"
       y2="108"
       gradientUnits="userSpaceOnUse">
      <stop
         stop-color="#EFBD59"
         id="stop100" />
      <stop
         offset="1"
         stop-color="#D2920F"
         id="stop102" />
    </linearGradient>
    <linearGradient
       id="paint12_linear_630_42383"
       x1="54"
       y1="57"
       x2="54"
       y2="80"
       gradientUnits="userSpaceOnUse">
      <stop
         stop-color="#EFBD59"
         id="stop105" />
      <stop
         offset="1"
         stop-color="#D2920F"
         id="stop107" />
    </linearGradient>
    <linearGradient
       id="paint13_linear_630_42383"
       x1="83.5"
       y1="95"
       x2="83.5"
       y2="98"
       gradientUnits="userSpaceOnUse">
      <stop
         stop-color="#EFBD59"
         id="stop110" />
      <stop
         offset="1"
         stop-color="#D2920F"
         id="stop112" />
    </linearGradient>
    <linearGradient
       id="paint14_linear_630_42383"
       x1="24.5"
       y1="95"
       x2="24.5"
       y2="98"
       gradientUnits="userSpaceOnUse">
      <stop
         stop-color="#EFBD59"
         id="stop115" />
      <stop
         offset="1"
         stop-color="#D2920F"
         id="stop117" />
    </linearGradient>
    <linearGradient
       id="paint15_linear_630_42383"
       x1="54"
       y1="0"
       x2="54"
       y2="20"
       gradientUnits="userSpaceOnUse">
      <stop
         stop-color="#EFBD59"
         id="stop120" />
      <stop
         offset="1"
         stop-color="#D2920F"
         id="stop122" />
    </linearGradient>
    <linearGradient
       id="paint16_linear_630_42383"
       x1="54"
       y1="31"
       x2="54"
       y2="50"
       gradientUnits="userSpaceOnUse">
      <stop
         stop-color="#EFBD59"
         id="stop125" />
      <stop
         offset="1"
         stop-color="#D2920F"
         id="stop127" />
    </linearGradient>
    <clipPath
       id="clip0_630_42383">
      <rect
         width="20"
         height="20"
         fill="white"
         transform="translate(44)"
         id="rect130" />
    </clipPath>
  </defs>
</svg>
