<svg width="108" height="108" viewBox="0 0 108 108" fill="none" xmlns="http://www.w3.org/2000/svg">
<path d="M32.5484 80L29.3784 72.95H31.0384L33.2184 78.01L35.3984 72.95H36.9884L33.8184 80H32.5484ZM37.9241 80V72.95H42.7541V74.16H39.4041V75.81H42.5341V77.03H39.4041V78.79H42.7541V80H37.9241ZM44.3788 80V72.95H47.5988C48.3854 72.95 48.9921 73.14 49.4188 73.52C49.8454 73.9 50.0588 74.43 50.0588 75.11C50.0588 75.6367 49.9221 76.0767 49.6488 76.43C49.3821 76.7767 48.9988 77.0133 48.4988 77.14C48.8521 77.2467 49.1421 77.5033 49.3688 77.91L50.5088 80H48.7988L47.5788 77.75C47.4788 77.57 47.3554 77.4467 47.2088 77.38C47.0621 77.3067 46.8888 77.27 46.6888 77.27H45.9288V80H44.3788ZM45.9288 76.15H47.3188C48.1521 76.15 48.5688 75.8167 48.5688 75.15C48.5688 74.49 48.1521 74.16 47.3188 74.16H45.9288V76.15ZM51.7416 80V72.95H53.2916V80H51.7416ZM55.1006 80V72.95H59.8606V74.16H56.6506V75.88H59.6406V77.09H56.6506V80H55.1006ZM61.2038 80V72.95H62.7538V80H61.2038ZM64.5627 80V72.95H69.3927V74.16H66.0427V75.81H69.1727V77.03H66.0427V78.79H69.3927V80H64.5627ZM71.0174 80V72.95H73.7774C74.9774 72.95 75.9074 73.2567 76.5674 73.87C77.2274 74.4767 77.5574 75.3433 77.5574 76.47C77.5574 77.5967 77.2274 78.4667 76.5674 79.08C75.9074 79.6933 74.9774 80 73.7774 80H71.0174ZM72.5674 78.73H73.6874C75.1874 78.73 75.9374 77.9767 75.9374 76.47C75.9374 74.97 75.1874 74.22 73.6874 74.22H72.5674V78.73ZM30.1262 91V83.95H33.3462C34.1329 83.95 34.7395 84.14 35.1662 84.52C35.5929 84.9 35.8062 85.43 35.8062 86.11C35.8062 86.6367 35.6695 87.0767 35.3962 87.43C35.1295 87.7767 34.7462 88.0133 34.2462 88.14C34.5995 88.2467 34.8895 88.5033 35.1162 88.91L36.2562 91H34.5462L33.3262 88.75C33.2262 88.57 33.1029 88.4467 32.9562 88.38C32.8095 88.3067 32.6362 88.27 32.4362 88.27H31.6762V91H30.1262ZM31.6762 87.15H33.0662C33.8995 87.15 34.3162 86.8167 34.3162 86.15C34.3162 85.49 33.8995 85.16 33.0662 85.16H31.6762V87.15ZM37.4891 91V83.95H42.3191V85.16H38.9691V86.81H42.0991V88.03H38.9691V89.79H42.3191V91H37.4891ZM46.2338 91L43.0638 83.95H44.7238L46.9038 89.01L49.0838 83.95H50.6738L47.5038 91H46.2338ZM51.6094 91V83.95H53.1594V91H51.6094ZM54.9684 91V83.95H59.7984V85.16H56.4484V86.81H59.5784V88.03H56.4484V89.79H59.7984V91H54.9684ZM63.3931 91L60.8831 83.95H62.4731L64.0931 88.77L65.8031 83.95H66.9231L68.5831 88.85L70.2631 83.95H71.7631L69.2331 91H67.9731L66.3231 86.32L64.6531 91H63.3931ZM75.4075 91.11C74.8542 91.11 74.3309 91.04 73.8375 90.9C73.3509 90.76 72.9442 90.57 72.6175 90.33L73.0675 89.11C73.3809 89.33 73.7375 89.5033 74.1375 89.63C74.5442 89.7567 74.9675 89.82 75.4075 89.82C75.8875 89.82 76.2309 89.7467 76.4375 89.6C76.6509 89.4467 76.7575 89.2567 76.7575 89.03C76.7575 88.8367 76.6842 88.6833 76.5375 88.57C76.3909 88.4567 76.1342 88.36 75.7675 88.28L74.6375 88.04C73.3775 87.7733 72.7475 87.12 72.7475 86.08C72.7475 85.6333 72.8675 85.2433 73.1075 84.91C73.3475 84.57 73.6809 84.3067 74.1075 84.12C74.5409 83.9333 75.0409 83.84 75.6075 83.84C76.0942 83.84 76.5509 83.91 76.9775 84.05C77.4042 84.19 77.7575 84.3867 78.0375 84.64L77.5875 85.78C77.0409 85.3467 76.3775 85.13 75.5975 85.13C75.1775 85.13 74.8509 85.2133 74.6175 85.38C74.3909 85.54 74.2775 85.75 74.2775 86.01C74.2775 86.2033 74.3475 86.36 74.4875 86.48C74.6275 86.6 74.8709 86.6967 75.2175 86.77L76.3475 87.01C77.6409 87.29 78.2875 87.9233 78.2875 88.91C78.2875 89.35 78.1675 89.7367 77.9275 90.07C77.6942 90.3967 77.3609 90.6533 76.9275 90.84C76.5009 91.02 75.9942 91.11 75.4075 91.11Z" fill="url(#paint0_linear_630_40817)"/>
<path d="M42.2366 65V62.47L47.0986 57.366C47.7146 56.6913 48.1546 56.1047 48.4186 55.606C48.6973 55.0927 48.8366 54.5793 48.8366 54.066C48.8366 52.746 48.0226 52.086 46.3946 52.086C45.7639 52.086 45.1333 52.2107 44.5026 52.46C43.8719 52.6947 43.2559 53.0613 42.6546 53.56L41.5546 51.052C42.1999 50.4947 42.9919 50.0547 43.9306 49.732C44.8839 49.4093 45.8593 49.248 46.8566 49.248C48.5873 49.248 49.9073 49.6367 50.8166 50.414C51.7406 51.1767 52.2026 52.2693 52.2026 53.692C52.2026 54.6307 51.9826 55.5327 51.5426 56.398C51.1173 57.2487 50.4133 58.1727 49.4306 59.17L46.4386 62.206H52.7746V65H42.2366ZM60.8 65.242C58.9227 65.242 57.4853 64.5453 56.488 63.152C55.5053 61.7587 55.014 59.7713 55.014 57.19C55.014 54.6087 55.5053 52.6433 56.488 51.294C57.4853 49.93 58.9227 49.248 60.8 49.248C62.6773 49.248 64.1073 49.93 65.09 51.294C66.0873 52.6433 66.586 54.6087 66.586 57.19C66.586 59.7713 66.0873 61.7587 65.09 63.152C64.1073 64.5453 62.6773 65.242 60.8 65.242ZM60.8 62.47C61.6507 62.47 62.2813 62.052 62.692 61.216C63.1027 60.3653 63.308 59.0233 63.308 57.19C63.308 55.3567 63.1027 54.0367 62.692 53.23C62.2813 52.4233 61.6507 52.02 60.8 52.02C59.9493 52.02 59.3187 52.4233 58.908 53.23C58.4973 54.0367 58.292 55.3567 58.292 57.19C58.292 59.0233 58.4973 60.3653 58.908 61.216C59.3187 62.052 59.9493 62.47 60.8 62.47Z" fill="url(#paint1_linear_630_40817)"/>
<path d="M28.7206 32V24.95H30.0106L32.3906 29.28L34.7606 24.95H36.0306V32H34.6206V27.7L32.8006 30.94H31.9306L30.1206 27.73V32H28.7206ZM41.1304 32.11C40.4371 32.11 39.8271 31.96 39.3004 31.66C38.7804 31.3533 38.3737 30.93 38.0804 30.39C37.7937 29.8433 37.6504 29.2033 37.6504 28.47C37.6504 27.7367 37.7937 27.1 38.0804 26.56C38.3737 26.0133 38.7804 25.59 39.3004 25.29C39.8204 24.99 40.4304 24.84 41.1304 24.84C41.8304 24.84 42.4404 24.99 42.9604 25.29C43.4871 25.59 43.8937 26.0133 44.1804 26.56C44.4737 27.1 44.6204 27.7333 44.6204 28.46C44.6204 29.1933 44.4737 29.8333 44.1804 30.38C43.8937 30.9267 43.4871 31.3533 42.9604 31.66C42.4404 31.96 41.8304 32.11 41.1304 32.11ZM41.1304 30.79C41.7171 30.79 42.1737 30.5867 42.5004 30.18C42.8337 29.7667 43.0004 29.1967 43.0004 28.47C43.0004 27.7367 42.8371 27.17 42.5104 26.77C42.1837 26.3633 41.7237 26.16 41.1304 26.16C40.5504 26.16 40.0937 26.3633 39.7604 26.77C39.4337 27.17 39.2704 27.7367 39.2704 28.47C39.2704 29.1967 39.4337 29.7667 39.7604 30.18C40.0937 30.5867 40.5504 30.79 41.1304 30.79ZM46.2194 32V24.95H47.3694L50.8894 29.44V24.95H52.3294V32H51.1894L47.6594 27.5V32H46.2194ZM55.8287 32V26.23H53.4987V24.95H59.7087V26.23H57.3787V32H55.8287ZM60.867 32V24.95H62.417V27.78H65.697V24.95H67.247V32H65.697V29.07H62.417V32H60.867ZM69.0698 32V24.95H70.6198V30.69H73.8798V32H69.0698ZM75.6808 32V28.82L72.9608 24.95H74.7608L76.4808 27.43L78.2008 24.95H79.9308L77.2308 28.83V32H75.6808ZM32.5772 43V35.95H35.7972C36.5839 35.95 37.1905 36.14 37.6172 36.52C38.0439 36.9 38.2572 37.43 38.2572 38.11C38.2572 38.6367 38.1205 39.0767 37.8472 39.43C37.5805 39.7767 37.1972 40.0133 36.6972 40.14C37.0505 40.2467 37.3405 40.5033 37.5672 40.91L38.7072 43H36.9972L35.7772 40.75C35.6772 40.57 35.5539 40.4467 35.4072 40.38C35.2605 40.3067 35.0872 40.27 34.8872 40.27H34.1272V43H32.5772ZM34.1272 39.15H35.5172C36.3505 39.15 36.7672 38.8167 36.7672 38.15C36.7672 37.49 36.3505 37.16 35.5172 37.16H34.1272V39.15ZM39.9401 43V35.95H44.7701V37.16H41.4201V38.81H44.5501V40.03H41.4201V41.79H44.7701V43H39.9401ZM49.8148 43.11C49.0548 43.11 48.4048 42.96 47.8648 42.66C47.3248 42.36 46.9081 41.94 46.6148 41.4C46.3281 40.8533 46.1848 40.21 46.1848 39.47C46.1848 38.7367 46.3281 38.1 46.6148 37.56C46.9081 37.0133 47.3248 36.59 47.8648 36.29C48.4048 35.99 49.0548 35.84 49.8148 35.84C50.2814 35.84 50.7281 35.9133 51.1548 36.06C51.5814 36.2067 51.9314 36.4067 52.2048 36.66L51.7248 37.89C51.4248 37.6567 51.1214 37.4867 50.8148 37.38C50.5148 37.2667 50.1981 37.21 49.8648 37.21C49.1914 37.21 48.6814 37.4067 48.3348 37.8C47.9948 38.1867 47.8248 38.7433 47.8248 39.47C47.8248 40.1967 47.9948 40.7567 48.3348 41.15C48.6814 41.5433 49.1914 41.74 49.8648 41.74C50.1981 41.74 50.5148 41.6867 50.8148 41.58C51.1214 41.4667 51.4248 41.2933 51.7248 41.06L52.2048 42.29C51.9314 42.5367 51.5814 42.7367 51.1548 42.89C50.7281 43.0367 50.2814 43.11 49.8148 43.11ZM56.6468 43.11C55.9535 43.11 55.3435 42.96 54.8168 42.66C54.2968 42.3533 53.8901 41.93 53.5968 41.39C53.3101 40.8433 53.1668 40.2033 53.1668 39.47C53.1668 38.7367 53.3101 38.1 53.5968 37.56C53.8901 37.0133 54.2968 36.59 54.8168 36.29C55.3368 35.99 55.9468 35.84 56.6468 35.84C57.3468 35.84 57.9568 35.99 58.4768 36.29C59.0035 36.59 59.4101 37.0133 59.6968 37.56C59.9901 38.1 60.1368 38.7333 60.1368 39.46C60.1368 40.1933 59.9901 40.8333 59.6968 41.38C59.4101 41.9267 59.0035 42.3533 58.4768 42.66C57.9568 42.96 57.3468 43.11 56.6468 43.11ZM56.6468 41.79C57.2335 41.79 57.6901 41.5867 58.0168 41.18C58.3501 40.7667 58.5168 40.1967 58.5168 39.47C58.5168 38.7367 58.3535 38.17 58.0268 37.77C57.7001 37.3633 57.2401 37.16 56.6468 37.16C56.0668 37.16 55.6101 37.3633 55.2768 37.77C54.9501 38.17 54.7868 38.7367 54.7868 39.47C54.7868 40.1967 54.9501 40.7667 55.2768 41.18C55.6101 41.5867 56.0668 41.79 56.6468 41.79ZM61.7358 43V35.95H64.9558C65.7424 35.95 66.3491 36.14 66.7758 36.52C67.2024 36.9 67.4158 37.43 67.4158 38.11C67.4158 38.6367 67.2791 39.0767 67.0058 39.43C66.7391 39.7767 66.3558 40.0133 65.8558 40.14C66.2091 40.2467 66.4991 40.5033 66.7258 40.91L67.8658 43H66.1558L64.9358 40.75C64.8358 40.57 64.7124 40.4467 64.5658 40.38C64.4191 40.3067 64.2458 40.27 64.0458 40.27H63.2858V43H61.7358ZM63.2858 39.15H64.6758C65.5091 39.15 65.9258 38.8167 65.9258 38.15C65.9258 37.49 65.5091 37.16 64.6758 37.16H63.2858V39.15ZM69.0987 43V35.95H71.8587C73.0587 35.95 73.9887 36.2567 74.6487 36.87C75.3087 37.4767 75.6387 38.3433 75.6387 39.47C75.6387 40.5967 75.3087 41.4667 74.6487 42.08C73.9887 42.6933 73.0587 43 71.8587 43H69.0987ZM70.6487 41.73H71.7687C73.2687 41.73 74.0187 40.9767 74.0187 39.47C74.0187 37.97 73.2687 37.22 71.7687 37.22H70.6487V41.73Z" fill="url(#paint2_linear_630_40817)"/>
<path fill-rule="evenodd" clip-rule="evenodd" d="M54 20C59.5228 20 64 15.5228 64 10C64 4.47715 59.5228 0 54 0C48.4772 0 44 4.47715 44 10C44 15.5228 48.4772 20 54 20ZM57.2949 12.488V2.9668H52.7764V5.5758H54.6859V12.488C54.6859 13.5368 53.8252 14.3976 52.7764 14.3976C51.7275 14.3976 50.8669 13.537 50.8669 12.488H48.2579C48.2579 14.9891 50.2745 17.0333 52.7764 17.0333C55.2782 17.0333 57.2949 14.9893 57.2949 12.488Z" fill="url(#paint3_linear_630_40817)"/>
<path d="M17.7204 46.7147C18.0837 46.5737 18.4263 46.9163 18.2853 47.2797L17.4005 49.5599C17.343 49.708 17.3654 49.8719 17.4595 49.9926L18.9086 51.8521C19.1395 52.1484 18.9045 52.5951 18.5211 52.5888L16.1148 52.5489C15.9585 52.5464 15.8085 52.6253 15.7185 52.7574L14.3339 54.7914C14.1132 55.1155 13.6254 55.049 13.5295 54.6817L12.927 52.3768C12.8879 52.2272 12.7728 52.1121 12.6232 52.073L10.3183 51.4705C9.95101 51.3746 9.88452 50.8868 10.2086 50.6661L12.2426 49.2815C12.3747 49.1915 12.4536 49.0415 12.4511 48.8852L12.4112 46.4789C12.4049 46.0955 12.8516 45.8605 13.1479 46.0914L15.0074 47.5405C15.1281 47.6346 15.292 47.657 15.4401 47.5995L17.7204 46.7147Z" fill="url(#paint4_linear_630_40817)"/>
<path d="M96.7204 46.7147C97.0837 46.5737 97.4263 46.9163 97.2853 47.2797L96.4005 49.5599C96.343 49.708 96.3654 49.8719 96.4595 49.9926L97.9086 51.8521C98.1395 52.1484 97.9045 52.5951 97.5211 52.5888L95.1148 52.5489C94.9585 52.5464 94.8085 52.6253 94.7185 52.7574L93.3339 54.7914C93.1132 55.1155 92.6254 55.049 92.5295 54.6817L91.927 52.3768C91.8879 52.2272 91.7728 52.1121 91.6232 52.073L89.3183 51.4705C88.951 51.3746 88.8845 50.8868 89.2086 50.6661L91.2426 49.2815C91.3747 49.1915 91.4536 49.0415 91.4511 48.8852L91.4112 46.4789C91.4049 46.0955 91.8516 45.8605 92.1479 46.0914L94.0074 47.5405C94.1281 47.6346 94.292 47.657 94.4401 47.5995L96.7204 46.7147Z" fill="url(#paint5_linear_630_40817)"/>
<path d="M94.844 75.1014C95.6228 76.7278 96.1491 78.4342 95.711 80.32C95.4021 81.5457 94.8745 82.6985 94.1564 83.7169C94.0226 83.8889 93.9354 84.0958 93.9039 84.3156C93.9039 84.6358 94.1716 84.8279 94.482 84.8471C94.8143 84.842 95.1426 84.7703 95.4494 84.6358C96.3621 84.3572 97.1744 83.9442 98.0566 83.6145C98.9389 83.2847 99.8151 82.9453 100.722 82.6348C102.416 81.9048 104.196 81.2325 106 80.5921C105.136 80.9123 103.186 83.2431 102.368 83.9538C101.04 84.9571 99.6443 85.855 98.1905 86.64C96.8605 87.2678 95.4583 87.7101 94.0195 87.9558C92.6049 88.1511 91.3423 87.7061 91.0655 86.4703C90.8708 85.6379 91.1415 84.7286 91.4671 83.8066C91.7926 82.8845 92.2824 82.0713 92.6292 81.2196C93.1403 80.0799 93.2559 78.7192 93.4689 77.5218C93.6458 76.3255 93.9196 75.1472 94.2873 74C94.4759 74.3554 94.6645 74.7236 94.844 75.1014Z" fill="url(#paint6_linear_630_40817)"/>
<path d="M100.608 66.6141C101.484 67.2134 102.252 67.9322 102.57 69.0418C102.765 69.7706 102.824 70.5293 102.745 71.2775C102.726 71.4078 102.74 71.5416 102.787 71.6649C102.88 71.8303 103.075 71.8467 103.242 71.7607C103.413 71.6553 103.563 71.5167 103.684 71.3523C104.078 70.9261 104.381 70.4615 104.744 70.0182C105.107 69.575 105.465 69.1287 105.846 68.6878C106.516 67.7866 107.247 66.8888 108 66C107.643 66.4326 107.304 68.2399 107.084 68.8602C106.685 69.7889 106.218 70.6846 105.69 71.5398C105.18 72.2755 104.579 72.9377 103.901 73.5097C103.222 74.0481 102.437 74.2087 101.935 73.6559C101.593 73.2861 101.47 72.7327 101.373 72.1557C101.275 71.5786 101.294 71.007 101.228 70.4598C101.164 69.7129 100.83 68.9742 100.594 68.2898C100.34 67.6171 100.141 66.9237 100 66.2173C100.201 66.3426 100.406 66.4744 100.608 66.6141Z" fill="url(#paint7_linear_630_40817)"/>
<path d="M7.39158 66.6141C6.51564 67.2134 5.74785 67.9322 5.42969 69.0418C5.23547 69.7706 5.17606 70.5293 5.25465 71.2775C5.27443 71.4078 5.25991 71.5416 5.21263 71.6649C5.11993 71.8303 4.92508 71.8467 4.75814 71.7607C4.58678 71.6553 4.43678 71.5167 4.31619 71.3523C3.92219 70.9261 3.61933 70.4615 3.25598 70.0182C2.89262 69.575 2.53522 69.1287 2.15365 68.6878C1.48374 67.7866 0.752831 66.8888 0 66C0.356638 66.4326 0.69597 68.2399 0.915784 68.8602C1.31545 69.7889 1.7816 70.6846 2.31036 71.5398C2.82028 72.2755 3.42142 72.9377 4.09854 73.5097C4.7777 74.0481 5.56315 74.2087 6.06494 73.6559C6.40721 73.2861 6.52966 72.7327 6.62734 72.1557C6.72501 71.5786 6.70574 71.007 6.77194 70.4598C6.83614 69.7129 7.16999 68.9742 7.40593 68.2898C7.6603 67.6171 7.85905 66.9237 8 66.2173C7.79901 66.3426 7.59431 66.4744 7.39158 66.6141Z" fill="url(#paint8_linear_630_40817)"/>
<path d="M18.1054 18.1262C17.1357 17.7725 16.1319 17.5697 15.0703 17.9354C14.3814 18.1871 13.7446 18.5608 13.1937 19.0368C13.1013 19.1245 12.9867 19.1873 12.862 19.2185C12.6783 19.2376 12.5555 19.0942 12.53 18.9158C12.5174 18.7233 12.5432 18.5291 12.6061 18.3436C12.7233 17.7991 12.9223 17.3047 13.0703 16.7747C13.2183 16.2447 13.3721 15.7177 13.508 15.1748C13.8477 14.1512 14.1504 13.0817 14.4335 12C14.2902 12.5188 13.0438 13.7856 12.6742 14.3013C12.1605 15.1287 11.7105 15.9897 11.328 16.8774C11.0299 17.6841 10.8415 18.5215 10.7678 19.3684C10.7218 20.1983 11.0361 20.9021 11.7582 20.9887C12.2449 21.0518 12.754 20.841 13.2679 20.5978C13.7818 20.3546 14.2256 20.0229 14.6981 19.7716C15.3282 19.4081 16.1036 19.2602 16.7807 19.0657C17.4589 18.8922 18.1222 18.6636 18.7634 18.3827C18.5506 18.2947 18.3305 18.2075 18.1054 18.1262Z" fill="url(#paint9_linear_630_40817)"/>
<path d="M89.658 18.1262C90.6276 17.7725 91.6314 17.5697 92.693 17.9354C93.382 18.1871 94.0188 18.5608 94.5696 19.0368C94.6621 19.1245 94.7767 19.1873 94.9014 19.2185C95.0851 19.2376 95.2078 19.0942 95.2333 18.9158C95.246 18.7233 95.2202 18.5291 95.1573 18.3436C95.0401 17.7991 94.8411 17.3047 94.693 16.7747C94.545 16.2447 94.3912 15.7177 94.2554 15.1748C93.9157 14.1512 93.613 13.0817 93.3299 12C93.4732 12.5188 94.7196 13.7856 95.0892 14.3013C95.6029 15.1287 96.0529 15.9897 96.4354 16.8774C96.7335 17.6841 96.9218 18.5215 96.9956 19.3684C97.0416 20.1983 96.7272 20.9021 96.0052 20.9887C95.5184 21.0518 95.0093 20.841 94.4954 20.5978C93.9815 20.3546 93.5378 20.0229 93.0653 19.7716C92.4352 19.4081 91.6598 19.2602 90.9826 19.0657C90.3044 18.8922 89.6411 18.6636 89 18.3827C89.2127 18.2947 89.4328 18.2075 89.658 18.1262Z" fill="url(#paint10_linear_630_40817)"/>
<path d="M13.1573 75.1014C12.3784 76.7278 11.8521 78.4342 12.2902 80.32C12.6018 81.5465 13.1326 82.6994 13.8541 83.7169C13.9879 83.8889 14.0752 84.0958 14.1066 84.3156C14.1066 84.6358 13.8389 84.8279 13.5285 84.8471C13.1962 84.842 12.8678 84.7703 12.561 84.6358C11.6482 84.3572 10.8389 83.9442 9.95649 83.6145C9.07413 83.2847 8.19481 82.9453 7.29114 82.6348C5.58118 81.9048 3.80124 81.2325 2 80.5921C2.86107 80.9123 4.81444 83.2431 5.62986 83.9538C6.95708 84.9571 8.35345 85.855 9.8074 86.64C11.1386 87.2677 12.5419 87.7101 13.9819 87.9558C15.3937 88.1511 16.6564 87.7061 16.9333 86.4703C17.131 85.6379 16.8572 84.7286 16.5316 83.8066C16.2061 82.8845 15.7162 82.0713 15.3693 81.2196C14.8582 80.0799 14.7426 78.7192 14.5296 77.5218C14.3541 76.3252 14.0802 75.1468 13.7111 74C13.5225 74.3554 13.3247 74.7236 13.1573 75.1014Z" fill="url(#paint11_linear_630_40817)"/>
<path d="M14.3544 24.8745C12.5897 24.732 10.8407 24.8528 9.26738 25.934C8.25344 26.662 7.38422 27.5673 6.70619 28.6015C6.59574 28.7874 6.43698 28.9424 6.24665 29.0502C5.95331 29.1646 5.68295 28.9845 5.55597 28.7029C5.44348 28.3923 5.39346 28.0615 5.40859 27.7283C5.34212 26.7805 5.4353 25.8807 5.42648 24.9429C5.41766 24.0051 5.41871 23.0666 5.38478 22.1158C5.45097 20.2659 5.43971 18.3715 5.3916 16.4688C5.40171 17.3834 3.9546 20.0317 3.59076 21.0435C3.13928 22.6355 2.80873 24.2541 2.60187 25.8858C2.49584 27.3472 2.58511 28.8095 2.86742 30.2354C3.18602 31.6172 4.03876 32.6315 5.26863 32.4471C6.10101 32.3333 6.83758 31.7538 7.56766 31.1217C8.29775 30.4896 8.8702 29.7437 9.52824 29.117C10.3924 28.2345 11.5983 27.6407 12.6204 27.0148C13.6549 26.424 14.638 25.7483 15.5587 24.9954C15.1666 24.9471 14.7595 24.8949 14.3544 24.8745Z" fill="url(#paint12_linear_630_40817)"/>
<path d="M93.409 24.8745C95.1736 24.732 96.9226 24.8528 98.496 25.934C99.5099 26.662 100.379 27.5673 101.057 28.6015C101.168 28.7874 101.326 28.9424 101.517 29.0502C101.81 29.1646 102.08 28.9845 102.207 28.7029C102.32 28.3923 102.37 28.0615 102.355 27.7283C102.421 26.7805 102.328 25.8807 102.337 24.9429C102.346 24.0051 102.345 23.0666 102.379 22.1158C102.312 20.2659 102.324 18.3715 102.372 16.4688C102.362 17.3834 103.809 20.0317 104.173 21.0435C104.624 22.6355 104.955 24.2541 105.161 25.8858C105.268 27.3472 105.178 28.8095 104.896 30.2354C104.577 31.6172 103.725 32.6315 102.495 32.4471C101.662 32.3333 100.926 31.7538 100.196 31.1217C99.4656 30.4896 98.8932 29.7437 98.2351 29.117C97.371 28.2345 96.165 27.6407 95.143 27.0148C94.1085 26.424 93.1254 25.7483 92.2047 24.9954C92.5968 24.9471 93.0038 24.8949 93.409 24.8745Z" fill="url(#paint13_linear_630_40817)"/>
<circle cx="66" cy="4" r="1" fill="url(#paint14_linear_630_40817)"/>
<circle cx="42" cy="4" r="1" fill="url(#paint15_linear_630_40817)"/>
<path d="M65.3804 107.995C65.2664 107.994 65.1525 107.984 65.0397 107.967C56.5732 106.677 48.2437 104.574 40.1616 101.686C31.8939 98.6851 23.7106 94.6977 17.0308 88.8047C16.1462 88.0264 15.2866 87.2033 14.4677 86.361C10.2102 81.9162 6.68728 76.791 4.03692 71.1865C1.03055 64.2595 -0.3298 56.7007 0.0675236 49.1306C0.464847 41.5605 2.60851 34.1949 6.32259 27.6382C10.0367 21.0815 15.2153 15.5206 21.4334 11.4121C27.6515 7.30351 34.7318 4.76432 42.0933 4.00292C42.1708 3.99213 42.2494 4.01147 42.3136 4.05712C42.3778 4.10277 42.423 4.17142 42.4403 4.24953C42.4391 4.28795 42.4304 4.32574 42.4148 4.36068C42.3991 4.39561 42.3768 4.42699 42.3491 4.45295C42.3215 4.47891 42.289 4.49894 42.2537 4.51186C42.2183 4.52478 42.1808 4.53032 42.1434 4.52817C30.4523 5.7582 19.6638 11.5254 11.9909 20.6467C4.31808 29.768 0.342549 41.5519 0.879872 53.5811C1.12343 59.5267 2.47072 65.3702 4.84962 70.7989C7.25464 76.2106 10.6174 81.1189 14.7677 85.2753C18.3084 88.933 22.3357 92.0599 26.7301 94.5632C36.3419 100.069 47.3603 103.14 58.088 105.452C60.3802 105.946 62.685 106.388 65.0022 106.778C65.265 106.802 65.5187 106.889 65.743 107.031C65.8531 107.106 65.9347 107.217 65.974 107.346C66.0133 107.475 66.0079 107.614 65.9587 107.739C65.8931 107.831 65.805 107.902 65.7034 107.947C65.6018 107.992 65.4903 108.009 65.3804 107.995Z" fill="url(#paint16_linear_630_40817)"/>
<path d="M65.8591 4.52519C77.5473 5.75883 88.3322 11.5265 96.0031 20.646C103.674 29.7655 107.65 41.546 107.115 53.5725C106.871 59.5176 105.523 65.3605 103.143 70.7884C100.738 76.1985 97.3766 81.1059 93.229 85.263C89.6875 88.9204 85.6596 92.047 81.2646 94.5499C71.6569 100.055 60.6365 103.126 49.9129 105.438C47.6209 105.931 45.3164 106.373 42.9994 106.764C42.7356 106.788 42.4809 106.874 42.2555 107.017C42.1463 107.092 42.0655 107.203 42.0263 107.332C41.9871 107.46 41.9919 107.599 42.0399 107.724C42.1036 107.819 42.1909 107.894 42.2926 107.942C42.3943 107.989 42.5067 108.008 42.6181 107.997C42.7321 107.995 42.846 107.986 42.9587 107.968C51.4281 106.673 59.7598 104.565 67.8438 101.672C76.1107 98.6713 84.2901 94.6844 90.9724 88.792C91.8558 88.0149 92.7101 87.2005 93.5353 86.3486C97.792 81.9048 101.314 76.7801 103.962 71.1759C106.969 64.25 108.329 56.6922 107.933 49.1229C107.536 41.5536 105.393 34.1887 101.679 27.6326C97.9658 21.0765 92.7878 15.5162 86.5703 11.408C80.3528 7.29992 73.2731 4.7611 65.9123 4" fill="url(#paint17_linear_630_40817)"/>
<defs>
<linearGradient id="paint0_linear_630_40817" x1="54" y1="71" x2="54" y2="94" gradientUnits="userSpaceOnUse">
<stop stop-color="#B0B0B0"/>
<stop offset="1" stop-color="#666666"/>
</linearGradient>
<linearGradient id="paint1_linear_630_40817" x1="54" y1="46" x2="54" y2="69" gradientUnits="userSpaceOnUse">
<stop stop-color="#B0B0B0"/>
<stop offset="1" stop-color="#666666"/>
</linearGradient>
<linearGradient id="paint2_linear_630_40817" x1="54" y1="23" x2="54" y2="46" gradientUnits="userSpaceOnUse">
<stop stop-color="#B0B0B0"/>
<stop offset="1" stop-color="#666666"/>
</linearGradient>
<linearGradient id="paint3_linear_630_40817" x1="54" y1="0" x2="54" y2="20" gradientUnits="userSpaceOnUse">
<stop stop-color="#B0B0B0"/>
<stop offset="1" stop-color="#666666"/>
</linearGradient>
<linearGradient id="paint4_linear_630_40817" x1="14.5" y1="46" x2="14.5" y2="55" gradientUnits="userSpaceOnUse">
<stop stop-color="#B0B0B0"/>
<stop offset="1" stop-color="#666666"/>
</linearGradient>
<linearGradient id="paint5_linear_630_40817" x1="93.5" y1="46" x2="93.5" y2="55" gradientUnits="userSpaceOnUse">
<stop stop-color="#B0B0B0"/>
<stop offset="1" stop-color="#666666"/>
</linearGradient>
<linearGradient id="paint6_linear_630_40817" x1="98.5" y1="74" x2="98.5" y2="88" gradientUnits="userSpaceOnUse">
<stop stop-color="#B0B0B0"/>
<stop offset="1" stop-color="#666666"/>
</linearGradient>
<linearGradient id="paint7_linear_630_40817" x1="104" y1="66" x2="104" y2="74" gradientUnits="userSpaceOnUse">
<stop stop-color="#B0B0B0"/>
<stop offset="1" stop-color="#666666"/>
</linearGradient>
<linearGradient id="paint8_linear_630_40817" x1="4" y1="66" x2="4" y2="74" gradientUnits="userSpaceOnUse">
<stop stop-color="#B0B0B0"/>
<stop offset="1" stop-color="#666666"/>
</linearGradient>
<linearGradient id="paint9_linear_630_40817" x1="14.7634" y1="12" x2="14.7634" y2="21" gradientUnits="userSpaceOnUse">
<stop stop-color="#B0B0B0"/>
<stop offset="1" stop-color="#666666"/>
</linearGradient>
<linearGradient id="paint10_linear_630_40817" x1="93" y1="12" x2="93" y2="21" gradientUnits="userSpaceOnUse">
<stop stop-color="#B0B0B0"/>
<stop offset="1" stop-color="#666666"/>
</linearGradient>
<linearGradient id="paint11_linear_630_40817" x1="9.5" y1="74" x2="9.5" y2="88" gradientUnits="userSpaceOnUse">
<stop stop-color="#B0B0B0"/>
<stop offset="1" stop-color="#666666"/>
</linearGradient>
<linearGradient id="paint12_linear_630_40817" x1="9.05865" y1="16.4688" x2="9.05865" y2="32.4688" gradientUnits="userSpaceOnUse">
<stop stop-color="#B0B0B0"/>
<stop offset="1" stop-color="#666666"/>
</linearGradient>
<linearGradient id="paint13_linear_630_40817" x1="98.7047" y1="16.4688" x2="98.7047" y2="32.4688" gradientUnits="userSpaceOnUse">
<stop stop-color="#B0B0B0"/>
<stop offset="1" stop-color="#666666"/>
</linearGradient>
<linearGradient id="paint14_linear_630_40817" x1="66" y1="3" x2="66" y2="5" gradientUnits="userSpaceOnUse">
<stop stop-color="#B0B0B0"/>
<stop offset="1" stop-color="#666666"/>
</linearGradient>
<linearGradient id="paint15_linear_630_40817" x1="42" y1="3" x2="42" y2="5" gradientUnits="userSpaceOnUse">
<stop stop-color="#B0B0B0"/>
<stop offset="1" stop-color="#666666"/>
</linearGradient>
<linearGradient id="paint16_linear_630_40817" x1="33" y1="4" x2="33" y2="108" gradientUnits="userSpaceOnUse">
<stop stop-color="#B0B0B0"/>
<stop offset="1" stop-color="#666666"/>
</linearGradient>
<linearGradient id="paint17_linear_630_40817" x1="75" y1="4" x2="75" y2="108" gradientUnits="userSpaceOnUse">
<stop stop-color="#B0B0B0"/>
<stop offset="1" stop-color="#666666"/>
</linearGradient>
</defs>
</svg>
